<mxfile host="app.diagrams.net" modified="2021-05-25T20:18:44.261Z" agent="5.0 (Windows NT 10.0; Win64; x64) AppleWebKit/537.36 (KHTML, like Gecko) Chrome/90.0.4430.212 Safari/537.36" etag="_uoUjfv1MTi1PyKx0pc0" version="14.6.13" type="github">
  <diagram id="R2lEEEUBdFMjLlhIrx00" name="Page-1">
    <mxGraphModel dx="2031" dy="1293" grid="1" gridSize="10" guides="1" tooltips="1" connect="1" arrows="1" fold="1" page="1" pageScale="1" pageWidth="1700" pageHeight="1100" math="0" shadow="0" extFonts="Permanent Marker^https://fonts.googleapis.com/css?family=Permanent+Marker">
      <root>
        <mxCell id="0" />
        <mxCell id="1" parent="0" />
        <mxCell id="P7OZJWQYa5IZQyr4ZLPv-1" value="CPTCodes" style="shape=table;startSize=30;container=1;collapsible=1;childLayout=tableLayout;fixedRows=1;rowLines=0;fontStyle=1;align=center;resizeLast=1;" vertex="1" parent="1">
          <mxGeometry x="105" y="238" width="180" height="100" as="geometry" />
        </mxCell>
        <mxCell id="P7OZJWQYa5IZQyr4ZLPv-2" value="" style="shape=partialRectangle;collapsible=0;dropTarget=0;pointerEvents=0;fillColor=none;top=0;left=0;bottom=1;right=0;points=[[0,0.5],[1,0.5]];portConstraint=eastwest;" vertex="1" parent="P7OZJWQYa5IZQyr4ZLPv-1">
          <mxGeometry y="30" width="180" height="30" as="geometry" />
        </mxCell>
        <mxCell id="P7OZJWQYa5IZQyr4ZLPv-3" value="PK" style="shape=partialRectangle;connectable=0;fillColor=none;top=0;left=0;bottom=0;right=0;fontStyle=1;overflow=hidden;" vertex="1" parent="P7OZJWQYa5IZQyr4ZLPv-2">
          <mxGeometry width="30" height="30" as="geometry" />
        </mxCell>
        <mxCell id="P7OZJWQYa5IZQyr4ZLPv-4" value="CPTCode" style="shape=partialRectangle;connectable=0;fillColor=none;top=0;left=0;bottom=0;right=0;align=left;spacingLeft=6;fontStyle=5;overflow=hidden;" vertex="1" parent="P7OZJWQYa5IZQyr4ZLPv-2">
          <mxGeometry x="30" width="150" height="30" as="geometry" />
        </mxCell>
        <mxCell id="P7OZJWQYa5IZQyr4ZLPv-5" value="" style="shape=partialRectangle;collapsible=0;dropTarget=0;pointerEvents=0;fillColor=none;top=0;left=0;bottom=0;right=0;points=[[0,0.5],[1,0.5]];portConstraint=eastwest;" vertex="1" parent="P7OZJWQYa5IZQyr4ZLPv-1">
          <mxGeometry y="60" width="180" height="30" as="geometry" />
        </mxCell>
        <mxCell id="P7OZJWQYa5IZQyr4ZLPv-6" value="" style="shape=partialRectangle;connectable=0;fillColor=none;top=0;left=0;bottom=0;right=0;editable=1;overflow=hidden;" vertex="1" parent="P7OZJWQYa5IZQyr4ZLPv-5">
          <mxGeometry width="30" height="30" as="geometry" />
        </mxCell>
        <mxCell id="P7OZJWQYa5IZQyr4ZLPv-7" value="CPTDescription" style="shape=partialRectangle;connectable=0;fillColor=none;top=0;left=0;bottom=0;right=0;align=left;spacingLeft=6;overflow=hidden;" vertex="1" parent="P7OZJWQYa5IZQyr4ZLPv-5">
          <mxGeometry x="30" width="150" height="30" as="geometry" />
        </mxCell>
        <mxCell id="P7OZJWQYa5IZQyr4ZLPv-14" value="DiagnosticCodes" style="shape=table;startSize=30;container=1;collapsible=1;childLayout=tableLayout;fixedRows=1;rowLines=0;fontStyle=1;align=center;resizeLast=1;" vertex="1" parent="1">
          <mxGeometry x="95" y="83" width="180" height="100" as="geometry" />
        </mxCell>
        <mxCell id="P7OZJWQYa5IZQyr4ZLPv-15" value="" style="shape=partialRectangle;collapsible=0;dropTarget=0;pointerEvents=0;fillColor=none;top=0;left=0;bottom=1;right=0;points=[[0,0.5],[1,0.5]];portConstraint=eastwest;" vertex="1" parent="P7OZJWQYa5IZQyr4ZLPv-14">
          <mxGeometry y="30" width="180" height="30" as="geometry" />
        </mxCell>
        <mxCell id="P7OZJWQYa5IZQyr4ZLPv-16" value="PK" style="shape=partialRectangle;connectable=0;fillColor=none;top=0;left=0;bottom=0;right=0;fontStyle=1;overflow=hidden;" vertex="1" parent="P7OZJWQYa5IZQyr4ZLPv-15">
          <mxGeometry width="30" height="30" as="geometry" />
        </mxCell>
        <mxCell id="P7OZJWQYa5IZQyr4ZLPv-17" value="DiagCode" style="shape=partialRectangle;connectable=0;fillColor=none;top=0;left=0;bottom=0;right=0;align=left;spacingLeft=6;fontStyle=5;overflow=hidden;" vertex="1" parent="P7OZJWQYa5IZQyr4ZLPv-15">
          <mxGeometry x="30" width="150" height="30" as="geometry" />
        </mxCell>
        <mxCell id="P7OZJWQYa5IZQyr4ZLPv-18" value="" style="shape=partialRectangle;collapsible=0;dropTarget=0;pointerEvents=0;fillColor=none;top=0;left=0;bottom=0;right=0;points=[[0,0.5],[1,0.5]];portConstraint=eastwest;" vertex="1" parent="P7OZJWQYa5IZQyr4ZLPv-14">
          <mxGeometry y="60" width="180" height="30" as="geometry" />
        </mxCell>
        <mxCell id="P7OZJWQYa5IZQyr4ZLPv-19" value="" style="shape=partialRectangle;connectable=0;fillColor=none;top=0;left=0;bottom=0;right=0;editable=1;overflow=hidden;" vertex="1" parent="P7OZJWQYa5IZQyr4ZLPv-18">
          <mxGeometry width="30" height="30" as="geometry" />
        </mxCell>
        <mxCell id="P7OZJWQYa5IZQyr4ZLPv-20" value="DiagDescription" style="shape=partialRectangle;connectable=0;fillColor=none;top=0;left=0;bottom=0;right=0;align=left;spacingLeft=6;overflow=hidden;" vertex="1" parent="P7OZJWQYa5IZQyr4ZLPv-18">
          <mxGeometry x="30" width="150" height="30" as="geometry" />
        </mxCell>
        <mxCell id="P7OZJWQYa5IZQyr4ZLPv-27" value="Treatment (Therapy Type)" style="shape=table;startSize=30;container=1;collapsible=1;childLayout=tableLayout;fixedRows=1;rowLines=0;fontStyle=1;align=center;resizeLast=1;" vertex="1" parent="1">
          <mxGeometry x="365" y="428" width="180" height="130" as="geometry" />
        </mxCell>
        <mxCell id="P7OZJWQYa5IZQyr4ZLPv-28" value="" style="shape=partialRectangle;collapsible=0;dropTarget=0;pointerEvents=0;fillColor=none;top=0;left=0;bottom=1;right=0;points=[[0,0.5],[1,0.5]];portConstraint=eastwest;" vertex="1" parent="P7OZJWQYa5IZQyr4ZLPv-27">
          <mxGeometry y="30" width="180" height="30" as="geometry" />
        </mxCell>
        <mxCell id="P7OZJWQYa5IZQyr4ZLPv-29" value="PK" style="shape=partialRectangle;connectable=0;fillColor=none;top=0;left=0;bottom=0;right=0;fontStyle=1;overflow=hidden;" vertex="1" parent="P7OZJWQYa5IZQyr4ZLPv-28">
          <mxGeometry width="30" height="30" as="geometry" />
        </mxCell>
        <mxCell id="P7OZJWQYa5IZQyr4ZLPv-30" value="TreatmentID" style="shape=partialRectangle;connectable=0;fillColor=none;top=0;left=0;bottom=0;right=0;align=left;spacingLeft=6;fontStyle=5;overflow=hidden;" vertex="1" parent="P7OZJWQYa5IZQyr4ZLPv-28">
          <mxGeometry x="30" width="150" height="30" as="geometry" />
        </mxCell>
        <mxCell id="P7OZJWQYa5IZQyr4ZLPv-31" value="" style="shape=partialRectangle;collapsible=0;dropTarget=0;pointerEvents=0;fillColor=none;top=0;left=0;bottom=0;right=0;points=[[0,0.5],[1,0.5]];portConstraint=eastwest;" vertex="1" parent="P7OZJWQYa5IZQyr4ZLPv-27">
          <mxGeometry y="60" width="180" height="30" as="geometry" />
        </mxCell>
        <mxCell id="P7OZJWQYa5IZQyr4ZLPv-32" value="" style="shape=partialRectangle;connectable=0;fillColor=none;top=0;left=0;bottom=0;right=0;editable=1;overflow=hidden;" vertex="1" parent="P7OZJWQYa5IZQyr4ZLPv-31">
          <mxGeometry width="30" height="30" as="geometry" />
        </mxCell>
        <mxCell id="P7OZJWQYa5IZQyr4ZLPv-33" value="TreatmentCode" style="shape=partialRectangle;connectable=0;fillColor=none;top=0;left=0;bottom=0;right=0;align=left;spacingLeft=6;overflow=hidden;" vertex="1" parent="P7OZJWQYa5IZQyr4ZLPv-31">
          <mxGeometry x="30" width="150" height="30" as="geometry" />
        </mxCell>
        <mxCell id="P7OZJWQYa5IZQyr4ZLPv-34" value="" style="shape=partialRectangle;collapsible=0;dropTarget=0;pointerEvents=0;fillColor=none;top=0;left=0;bottom=0;right=0;points=[[0,0.5],[1,0.5]];portConstraint=eastwest;" vertex="1" parent="P7OZJWQYa5IZQyr4ZLPv-27">
          <mxGeometry y="90" width="180" height="30" as="geometry" />
        </mxCell>
        <mxCell id="P7OZJWQYa5IZQyr4ZLPv-35" value="" style="shape=partialRectangle;connectable=0;fillColor=none;top=0;left=0;bottom=0;right=0;editable=1;overflow=hidden;" vertex="1" parent="P7OZJWQYa5IZQyr4ZLPv-34">
          <mxGeometry width="30" height="30" as="geometry" />
        </mxCell>
        <mxCell id="P7OZJWQYa5IZQyr4ZLPv-36" value="TreatmentDescription" style="shape=partialRectangle;connectable=0;fillColor=none;top=0;left=0;bottom=0;right=0;align=left;spacingLeft=6;overflow=hidden;" vertex="1" parent="P7OZJWQYa5IZQyr4ZLPv-34">
          <mxGeometry x="30" width="150" height="30" as="geometry" />
        </mxCell>
        <mxCell id="P7OZJWQYa5IZQyr4ZLPv-40" value="Carriers" style="shape=table;startSize=30;container=1;collapsible=1;childLayout=tableLayout;fixedRows=1;rowLines=0;fontStyle=1;align=center;resizeLast=1;" vertex="1" parent="1">
          <mxGeometry x="980" y="238" width="180" height="285" as="geometry" />
        </mxCell>
        <mxCell id="P7OZJWQYa5IZQyr4ZLPv-41" value="" style="shape=partialRectangle;collapsible=0;dropTarget=0;pointerEvents=0;fillColor=none;top=0;left=0;bottom=1;right=0;points=[[0,0.5],[1,0.5]];portConstraint=eastwest;" vertex="1" parent="P7OZJWQYa5IZQyr4ZLPv-40">
          <mxGeometry y="30" width="180" height="30" as="geometry" />
        </mxCell>
        <mxCell id="P7OZJWQYa5IZQyr4ZLPv-42" value="PK" style="shape=partialRectangle;connectable=0;fillColor=none;top=0;left=0;bottom=0;right=0;fontStyle=1;overflow=hidden;" vertex="1" parent="P7OZJWQYa5IZQyr4ZLPv-41">
          <mxGeometry width="30" height="30" as="geometry" />
        </mxCell>
        <mxCell id="P7OZJWQYa5IZQyr4ZLPv-43" value="CarrierID" style="shape=partialRectangle;connectable=0;fillColor=none;top=0;left=0;bottom=0;right=0;align=left;spacingLeft=6;fontStyle=5;overflow=hidden;" vertex="1" parent="P7OZJWQYa5IZQyr4ZLPv-41">
          <mxGeometry x="30" width="150" height="30" as="geometry" />
        </mxCell>
        <mxCell id="P7OZJWQYa5IZQyr4ZLPv-44" value="" style="shape=partialRectangle;collapsible=0;dropTarget=0;pointerEvents=0;fillColor=none;top=0;left=0;bottom=0;right=0;points=[[0,0.5],[1,0.5]];portConstraint=eastwest;" vertex="1" parent="P7OZJWQYa5IZQyr4ZLPv-40">
          <mxGeometry y="60" width="180" height="30" as="geometry" />
        </mxCell>
        <mxCell id="P7OZJWQYa5IZQyr4ZLPv-45" value="" style="shape=partialRectangle;connectable=0;fillColor=none;top=0;left=0;bottom=0;right=0;editable=1;overflow=hidden;" vertex="1" parent="P7OZJWQYa5IZQyr4ZLPv-44">
          <mxGeometry width="30" height="30" as="geometry" />
        </mxCell>
        <mxCell id="P7OZJWQYa5IZQyr4ZLPv-46" value="CarrierName" style="shape=partialRectangle;connectable=0;fillColor=none;top=0;left=0;bottom=0;right=0;align=left;spacingLeft=6;overflow=hidden;" vertex="1" parent="P7OZJWQYa5IZQyr4ZLPv-44">
          <mxGeometry x="30" width="150" height="30" as="geometry" />
        </mxCell>
        <mxCell id="P7OZJWQYa5IZQyr4ZLPv-47" value="" style="shape=partialRectangle;collapsible=0;dropTarget=0;pointerEvents=0;fillColor=none;top=0;left=0;bottom=0;right=0;points=[[0,0.5],[1,0.5]];portConstraint=eastwest;" vertex="1" parent="P7OZJWQYa5IZQyr4ZLPv-40">
          <mxGeometry y="90" width="180" height="30" as="geometry" />
        </mxCell>
        <mxCell id="P7OZJWQYa5IZQyr4ZLPv-48" value="" style="shape=partialRectangle;connectable=0;fillColor=none;top=0;left=0;bottom=0;right=0;editable=1;overflow=hidden;" vertex="1" parent="P7OZJWQYa5IZQyr4ZLPv-47">
          <mxGeometry width="30" height="30" as="geometry" />
        </mxCell>
        <mxCell id="P7OZJWQYa5IZQyr4ZLPv-49" value="CarrierShortName" style="shape=partialRectangle;connectable=0;fillColor=none;top=0;left=0;bottom=0;right=0;align=left;spacingLeft=6;overflow=hidden;" vertex="1" parent="P7OZJWQYa5IZQyr4ZLPv-47">
          <mxGeometry x="30" width="150" height="30" as="geometry" />
        </mxCell>
        <mxCell id="P7OZJWQYa5IZQyr4ZLPv-50" value="" style="shape=partialRectangle;collapsible=0;dropTarget=0;pointerEvents=0;fillColor=none;top=0;left=0;bottom=0;right=0;points=[[0,0.5],[1,0.5]];portConstraint=eastwest;" vertex="1" parent="P7OZJWQYa5IZQyr4ZLPv-40">
          <mxGeometry y="120" width="180" height="30" as="geometry" />
        </mxCell>
        <mxCell id="P7OZJWQYa5IZQyr4ZLPv-51" value="" style="shape=partialRectangle;connectable=0;fillColor=none;top=0;left=0;bottom=0;right=0;editable=1;overflow=hidden;" vertex="1" parent="P7OZJWQYa5IZQyr4ZLPv-50">
          <mxGeometry width="30" height="30" as="geometry" />
        </mxCell>
        <mxCell id="P7OZJWQYa5IZQyr4ZLPv-52" value="CarrierContactName" style="shape=partialRectangle;connectable=0;fillColor=none;top=0;left=0;bottom=0;right=0;align=left;spacingLeft=6;overflow=hidden;" vertex="1" parent="P7OZJWQYa5IZQyr4ZLPv-50">
          <mxGeometry x="30" width="150" height="30" as="geometry" />
        </mxCell>
        <mxCell id="P7OZJWQYa5IZQyr4ZLPv-53" value="" style="shape=partialRectangle;collapsible=0;dropTarget=0;pointerEvents=0;fillColor=none;top=0;left=0;bottom=0;right=0;points=[[0,0.5],[1,0.5]];portConstraint=eastwest;" vertex="1" parent="P7OZJWQYa5IZQyr4ZLPv-40">
          <mxGeometry y="150" width="180" height="30" as="geometry" />
        </mxCell>
        <mxCell id="P7OZJWQYa5IZQyr4ZLPv-54" value="" style="shape=partialRectangle;connectable=0;fillColor=none;top=0;left=0;bottom=0;right=0;editable=1;overflow=hidden;" vertex="1" parent="P7OZJWQYa5IZQyr4ZLPv-53">
          <mxGeometry width="30" height="30" as="geometry" />
        </mxCell>
        <mxCell id="P7OZJWQYa5IZQyr4ZLPv-55" value="CarrierContactEmail" style="shape=partialRectangle;connectable=0;fillColor=none;top=0;left=0;bottom=0;right=0;align=left;spacingLeft=6;overflow=hidden;" vertex="1" parent="P7OZJWQYa5IZQyr4ZLPv-53">
          <mxGeometry x="30" width="150" height="30" as="geometry" />
        </mxCell>
        <mxCell id="P7OZJWQYa5IZQyr4ZLPv-56" value="" style="shape=partialRectangle;collapsible=0;dropTarget=0;pointerEvents=0;fillColor=none;top=0;left=0;bottom=0;right=0;points=[[0,0.5],[1,0.5]];portConstraint=eastwest;" vertex="1" parent="P7OZJWQYa5IZQyr4ZLPv-40">
          <mxGeometry y="180" width="180" height="30" as="geometry" />
        </mxCell>
        <mxCell id="P7OZJWQYa5IZQyr4ZLPv-57" value="" style="shape=partialRectangle;connectable=0;fillColor=none;top=0;left=0;bottom=0;right=0;editable=1;overflow=hidden;" vertex="1" parent="P7OZJWQYa5IZQyr4ZLPv-56">
          <mxGeometry width="30" height="30" as="geometry" />
        </mxCell>
        <mxCell id="P7OZJWQYa5IZQyr4ZLPv-58" value="CarrierContactPhone" style="shape=partialRectangle;connectable=0;fillColor=none;top=0;left=0;bottom=0;right=0;align=left;spacingLeft=6;overflow=hidden;" vertex="1" parent="P7OZJWQYa5IZQyr4ZLPv-56">
          <mxGeometry x="30" width="150" height="30" as="geometry" />
        </mxCell>
        <mxCell id="P7OZJWQYa5IZQyr4ZLPv-59" value="" style="shape=partialRectangle;collapsible=0;dropTarget=0;pointerEvents=0;fillColor=none;top=0;left=0;bottom=0;right=0;points=[[0,0.5],[1,0.5]];portConstraint=eastwest;" vertex="1" parent="P7OZJWQYa5IZQyr4ZLPv-40">
          <mxGeometry y="210" width="180" height="30" as="geometry" />
        </mxCell>
        <mxCell id="P7OZJWQYa5IZQyr4ZLPv-60" value="" style="shape=partialRectangle;connectable=0;fillColor=none;top=0;left=0;bottom=0;right=0;editable=1;overflow=hidden;" vertex="1" parent="P7OZJWQYa5IZQyr4ZLPv-59">
          <mxGeometry width="30" height="30" as="geometry" />
        </mxCell>
        <mxCell id="P7OZJWQYa5IZQyr4ZLPv-61" value="CarrierProviderPhone" style="shape=partialRectangle;connectable=0;fillColor=none;top=0;left=0;bottom=0;right=0;align=left;spacingLeft=6;overflow=hidden;" vertex="1" parent="P7OZJWQYa5IZQyr4ZLPv-59">
          <mxGeometry x="30" width="150" height="30" as="geometry" />
        </mxCell>
        <mxCell id="P7OZJWQYa5IZQyr4ZLPv-62" value="" style="shape=partialRectangle;collapsible=0;dropTarget=0;pointerEvents=0;fillColor=none;top=0;left=0;bottom=0;right=0;points=[[0,0.5],[1,0.5]];portConstraint=eastwest;" vertex="1" parent="P7OZJWQYa5IZQyr4ZLPv-40">
          <mxGeometry y="240" width="180" height="30" as="geometry" />
        </mxCell>
        <mxCell id="P7OZJWQYa5IZQyr4ZLPv-63" value="" style="shape=partialRectangle;connectable=0;fillColor=none;top=0;left=0;bottom=0;right=0;editable=1;overflow=hidden;" vertex="1" parent="P7OZJWQYa5IZQyr4ZLPv-62">
          <mxGeometry width="30" height="30" as="geometry" />
        </mxCell>
        <mxCell id="P7OZJWQYa5IZQyr4ZLPv-64" value="CarrierNotes" style="shape=partialRectangle;connectable=0;fillColor=none;top=0;left=0;bottom=0;right=0;align=left;spacingLeft=6;overflow=hidden;" vertex="1" parent="P7OZJWQYa5IZQyr4ZLPv-62">
          <mxGeometry x="30" width="150" height="30" as="geometry" />
        </mxCell>
        <mxCell id="P7OZJWQYa5IZQyr4ZLPv-87" value="Patient" style="shape=table;startSize=20;container=1;collapsible=1;childLayout=tableLayout;fixedRows=1;rowLines=0;fontStyle=1;align=center;resizeLast=1;fillColor=#fff2cc;strokeColor=#d6b656;" vertex="1" parent="1">
          <mxGeometry x="1290" y="60" width="180" height="275" as="geometry" />
        </mxCell>
        <mxCell id="P7OZJWQYa5IZQyr4ZLPv-88" value="" style="shape=partialRectangle;collapsible=0;dropTarget=0;pointerEvents=0;fillColor=none;top=0;left=0;bottom=1;right=0;points=[[0,0.5],[1,0.5]];portConstraint=eastwest;" vertex="1" parent="P7OZJWQYa5IZQyr4ZLPv-87">
          <mxGeometry y="20" width="180" height="30" as="geometry" />
        </mxCell>
        <mxCell id="P7OZJWQYa5IZQyr4ZLPv-89" value="PK" style="shape=partialRectangle;connectable=0;fillColor=none;top=0;left=0;bottom=0;right=0;fontStyle=1;overflow=hidden;" vertex="1" parent="P7OZJWQYa5IZQyr4ZLPv-88">
          <mxGeometry width="30" height="30" as="geometry" />
        </mxCell>
        <mxCell id="P7OZJWQYa5IZQyr4ZLPv-90" value="PatientId" style="shape=partialRectangle;connectable=0;fillColor=none;top=0;left=0;bottom=0;right=0;align=left;spacingLeft=6;fontStyle=5;overflow=hidden;" vertex="1" parent="P7OZJWQYa5IZQyr4ZLPv-88">
          <mxGeometry x="30" width="150" height="30" as="geometry" />
        </mxCell>
        <mxCell id="P7OZJWQYa5IZQyr4ZLPv-91" value="" style="shape=partialRectangle;collapsible=0;dropTarget=0;pointerEvents=0;fillColor=none;top=0;left=0;bottom=0;right=0;points=[[0,0.5],[1,0.5]];portConstraint=eastwest;" vertex="1" parent="P7OZJWQYa5IZQyr4ZLPv-87">
          <mxGeometry y="50" width="180" height="30" as="geometry" />
        </mxCell>
        <mxCell id="P7OZJWQYa5IZQyr4ZLPv-92" value="" style="shape=partialRectangle;connectable=0;fillColor=none;top=0;left=0;bottom=0;right=0;editable=1;overflow=hidden;" vertex="1" parent="P7OZJWQYa5IZQyr4ZLPv-91">
          <mxGeometry width="30" height="30" as="geometry" />
        </mxCell>
        <mxCell id="P7OZJWQYa5IZQyr4ZLPv-93" value="PatientFirstName" style="shape=partialRectangle;connectable=0;fillColor=none;top=0;left=0;bottom=0;right=0;align=left;spacingLeft=6;overflow=hidden;" vertex="1" parent="P7OZJWQYa5IZQyr4ZLPv-91">
          <mxGeometry x="30" width="150" height="30" as="geometry" />
        </mxCell>
        <mxCell id="P7OZJWQYa5IZQyr4ZLPv-94" value="" style="shape=partialRectangle;collapsible=0;dropTarget=0;pointerEvents=0;fillColor=none;top=0;left=0;bottom=0;right=0;points=[[0,0.5],[1,0.5]];portConstraint=eastwest;" vertex="1" parent="P7OZJWQYa5IZQyr4ZLPv-87">
          <mxGeometry y="80" width="180" height="30" as="geometry" />
        </mxCell>
        <mxCell id="P7OZJWQYa5IZQyr4ZLPv-95" value="" style="shape=partialRectangle;connectable=0;fillColor=none;top=0;left=0;bottom=0;right=0;editable=1;overflow=hidden;" vertex="1" parent="P7OZJWQYa5IZQyr4ZLPv-94">
          <mxGeometry width="30" height="30" as="geometry" />
        </mxCell>
        <mxCell id="P7OZJWQYa5IZQyr4ZLPv-96" value="PatientLastName" style="shape=partialRectangle;connectable=0;fillColor=none;top=0;left=0;bottom=0;right=0;align=left;spacingLeft=6;overflow=hidden;" vertex="1" parent="P7OZJWQYa5IZQyr4ZLPv-94">
          <mxGeometry x="30" width="150" height="30" as="geometry" />
        </mxCell>
        <mxCell id="P7OZJWQYa5IZQyr4ZLPv-97" value="" style="shape=partialRectangle;collapsible=0;dropTarget=0;pointerEvents=0;fillColor=none;top=0;left=0;bottom=0;right=0;points=[[0,0.5],[1,0.5]];portConstraint=eastwest;" vertex="1" parent="P7OZJWQYa5IZQyr4ZLPv-87">
          <mxGeometry y="110" width="180" height="30" as="geometry" />
        </mxCell>
        <mxCell id="P7OZJWQYa5IZQyr4ZLPv-98" value="" style="shape=partialRectangle;connectable=0;fillColor=none;top=0;left=0;bottom=0;right=0;editable=1;overflow=hidden;" vertex="1" parent="P7OZJWQYa5IZQyr4ZLPv-97">
          <mxGeometry width="30" height="30" as="geometry" />
        </mxCell>
        <mxCell id="P7OZJWQYa5IZQyr4ZLPv-99" value="PatientDOB" style="shape=partialRectangle;connectable=0;fillColor=none;top=0;left=0;bottom=0;right=0;align=left;spacingLeft=6;overflow=hidden;" vertex="1" parent="P7OZJWQYa5IZQyr4ZLPv-97">
          <mxGeometry x="30" width="150" height="30" as="geometry" />
        </mxCell>
        <mxCell id="P7OZJWQYa5IZQyr4ZLPv-205" value="" style="shape=partialRectangle;collapsible=0;dropTarget=0;pointerEvents=0;fillColor=none;top=0;left=0;bottom=0;right=0;points=[[0,0.5],[1,0.5]];portConstraint=eastwest;" vertex="1" parent="P7OZJWQYa5IZQyr4ZLPv-87">
          <mxGeometry y="140" width="180" height="30" as="geometry" />
        </mxCell>
        <mxCell id="P7OZJWQYa5IZQyr4ZLPv-206" value="" style="shape=partialRectangle;connectable=0;fillColor=none;top=0;left=0;bottom=0;right=0;editable=1;overflow=hidden;" vertex="1" parent="P7OZJWQYa5IZQyr4ZLPv-205">
          <mxGeometry width="30" height="30" as="geometry" />
        </mxCell>
        <mxCell id="P7OZJWQYa5IZQyr4ZLPv-207" value="PatientHaveIEP" style="shape=partialRectangle;connectable=0;fillColor=none;top=0;left=0;bottom=0;right=0;align=left;spacingLeft=6;overflow=hidden;" vertex="1" parent="P7OZJWQYa5IZQyr4ZLPv-205">
          <mxGeometry x="30" width="150" height="30" as="geometry" />
        </mxCell>
        <mxCell id="P7OZJWQYa5IZQyr4ZLPv-208" value="" style="shape=partialRectangle;collapsible=0;dropTarget=0;pointerEvents=0;fillColor=none;top=0;left=0;bottom=0;right=0;points=[[0,0.5],[1,0.5]];portConstraint=eastwest;" vertex="1" parent="P7OZJWQYa5IZQyr4ZLPv-87">
          <mxGeometry y="170" width="180" height="30" as="geometry" />
        </mxCell>
        <mxCell id="P7OZJWQYa5IZQyr4ZLPv-209" value="" style="shape=partialRectangle;connectable=0;fillColor=none;top=0;left=0;bottom=0;right=0;editable=1;overflow=hidden;" vertex="1" parent="P7OZJWQYa5IZQyr4ZLPv-208">
          <mxGeometry width="30" height="30" as="geometry" />
        </mxCell>
        <mxCell id="P7OZJWQYa5IZQyr4ZLPv-210" value="PatientInABA" style="shape=partialRectangle;connectable=0;fillColor=none;top=0;left=0;bottom=0;right=0;align=left;spacingLeft=6;overflow=hidden;" vertex="1" parent="P7OZJWQYa5IZQyr4ZLPv-208">
          <mxGeometry x="30" width="150" height="30" as="geometry" />
        </mxCell>
        <mxCell id="P7OZJWQYa5IZQyr4ZLPv-316" value="" style="shape=partialRectangle;collapsible=0;dropTarget=0;pointerEvents=0;fillColor=none;top=0;left=0;bottom=0;right=0;points=[[0,0.5],[1,0.5]];portConstraint=eastwest;" vertex="1" parent="P7OZJWQYa5IZQyr4ZLPv-87">
          <mxGeometry y="200" width="180" height="30" as="geometry" />
        </mxCell>
        <mxCell id="P7OZJWQYa5IZQyr4ZLPv-317" value="" style="shape=partialRectangle;connectable=0;fillColor=none;top=0;left=0;bottom=0;right=0;editable=1;overflow=hidden;" vertex="1" parent="P7OZJWQYa5IZQyr4ZLPv-316">
          <mxGeometry width="30" height="30" as="geometry" />
        </mxCell>
        <mxCell id="P7OZJWQYa5IZQyr4ZLPv-318" value="PatientClass (MD/CO)" style="shape=partialRectangle;connectable=0;fillColor=none;top=0;left=0;bottom=0;right=0;align=left;spacingLeft=6;overflow=hidden;" vertex="1" parent="P7OZJWQYa5IZQyr4ZLPv-316">
          <mxGeometry x="30" width="150" height="30" as="geometry" />
        </mxCell>
        <mxCell id="P7OZJWQYa5IZQyr4ZLPv-388" value="" style="shape=partialRectangle;collapsible=0;dropTarget=0;pointerEvents=0;fillColor=none;top=0;left=0;bottom=0;right=0;points=[[0,0.5],[1,0.5]];portConstraint=eastwest;" vertex="1" parent="P7OZJWQYa5IZQyr4ZLPv-87">
          <mxGeometry y="230" width="180" height="30" as="geometry" />
        </mxCell>
        <mxCell id="P7OZJWQYa5IZQyr4ZLPv-389" value="" style="shape=partialRectangle;connectable=0;fillColor=none;top=0;left=0;bottom=0;right=0;editable=1;overflow=hidden;" vertex="1" parent="P7OZJWQYa5IZQyr4ZLPv-388">
          <mxGeometry width="30" height="30" as="geometry" />
        </mxCell>
        <mxCell id="P7OZJWQYa5IZQyr4ZLPv-390" value="PatientNotes" style="shape=partialRectangle;connectable=0;fillColor=none;top=0;left=0;bottom=0;right=0;align=left;spacingLeft=6;overflow=hidden;" vertex="1" parent="P7OZJWQYa5IZQyr4ZLPv-388">
          <mxGeometry x="30" width="150" height="30" as="geometry" />
        </mxCell>
        <mxCell id="P7OZJWQYa5IZQyr4ZLPv-100" value="PlaceOfService (?)" style="shape=table;startSize=30;container=1;collapsible=1;childLayout=tableLayout;fixedRows=1;rowLines=0;fontStyle=1;align=center;resizeLast=1;fillColor=#fff2cc;strokeColor=#d6b656;" vertex="1" parent="1">
          <mxGeometry x="365" y="588" width="180" height="100" as="geometry" />
        </mxCell>
        <mxCell id="P7OZJWQYa5IZQyr4ZLPv-101" value="" style="shape=partialRectangle;collapsible=0;dropTarget=0;pointerEvents=0;fillColor=none;top=0;left=0;bottom=1;right=0;points=[[0,0.5],[1,0.5]];portConstraint=eastwest;" vertex="1" parent="P7OZJWQYa5IZQyr4ZLPv-100">
          <mxGeometry y="30" width="180" height="30" as="geometry" />
        </mxCell>
        <mxCell id="P7OZJWQYa5IZQyr4ZLPv-102" value="PK" style="shape=partialRectangle;connectable=0;fillColor=none;top=0;left=0;bottom=0;right=0;fontStyle=1;overflow=hidden;" vertex="1" parent="P7OZJWQYa5IZQyr4ZLPv-101">
          <mxGeometry width="30" height="30" as="geometry" />
        </mxCell>
        <mxCell id="P7OZJWQYa5IZQyr4ZLPv-103" value="POSCode" style="shape=partialRectangle;connectable=0;fillColor=none;top=0;left=0;bottom=0;right=0;align=left;spacingLeft=6;fontStyle=5;overflow=hidden;" vertex="1" parent="P7OZJWQYa5IZQyr4ZLPv-101">
          <mxGeometry x="30" width="150" height="30" as="geometry" />
        </mxCell>
        <mxCell id="P7OZJWQYa5IZQyr4ZLPv-104" value="" style="shape=partialRectangle;collapsible=0;dropTarget=0;pointerEvents=0;fillColor=none;top=0;left=0;bottom=0;right=0;points=[[0,0.5],[1,0.5]];portConstraint=eastwest;" vertex="1" parent="P7OZJWQYa5IZQyr4ZLPv-100">
          <mxGeometry y="60" width="180" height="30" as="geometry" />
        </mxCell>
        <mxCell id="P7OZJWQYa5IZQyr4ZLPv-105" value="" style="shape=partialRectangle;connectable=0;fillColor=none;top=0;left=0;bottom=0;right=0;editable=1;overflow=hidden;" vertex="1" parent="P7OZJWQYa5IZQyr4ZLPv-104">
          <mxGeometry width="30" height="30" as="geometry" />
        </mxCell>
        <mxCell id="P7OZJWQYa5IZQyr4ZLPv-106" value="POSDescription" style="shape=partialRectangle;connectable=0;fillColor=none;top=0;left=0;bottom=0;right=0;align=left;spacingLeft=6;overflow=hidden;" vertex="1" parent="P7OZJWQYa5IZQyr4ZLPv-104">
          <mxGeometry x="30" width="150" height="30" as="geometry" />
        </mxCell>
        <mxCell id="P7OZJWQYa5IZQyr4ZLPv-113" value="Statuses" style="shape=table;startSize=30;container=1;collapsible=1;childLayout=tableLayout;fixedRows=1;rowLines=0;fontStyle=1;align=center;resizeLast=1;" vertex="1" parent="1">
          <mxGeometry x="105" y="378" width="180" height="160" as="geometry" />
        </mxCell>
        <mxCell id="P7OZJWQYa5IZQyr4ZLPv-114" value="" style="shape=partialRectangle;collapsible=0;dropTarget=0;pointerEvents=0;fillColor=none;top=0;left=0;bottom=1;right=0;points=[[0,0.5],[1,0.5]];portConstraint=eastwest;" vertex="1" parent="P7OZJWQYa5IZQyr4ZLPv-113">
          <mxGeometry y="30" width="180" height="30" as="geometry" />
        </mxCell>
        <mxCell id="P7OZJWQYa5IZQyr4ZLPv-115" value="PK" style="shape=partialRectangle;connectable=0;fillColor=none;top=0;left=0;bottom=0;right=0;fontStyle=1;overflow=hidden;" vertex="1" parent="P7OZJWQYa5IZQyr4ZLPv-114">
          <mxGeometry width="30" height="30" as="geometry" />
        </mxCell>
        <mxCell id="P7OZJWQYa5IZQyr4ZLPv-116" value="StatusId" style="shape=partialRectangle;connectable=0;fillColor=none;top=0;left=0;bottom=0;right=0;align=left;spacingLeft=6;fontStyle=5;overflow=hidden;" vertex="1" parent="P7OZJWQYa5IZQyr4ZLPv-114">
          <mxGeometry x="30" width="150" height="30" as="geometry" />
        </mxCell>
        <mxCell id="P7OZJWQYa5IZQyr4ZLPv-117" value="" style="shape=partialRectangle;collapsible=0;dropTarget=0;pointerEvents=0;fillColor=none;top=0;left=0;bottom=0;right=0;points=[[0,0.5],[1,0.5]];portConstraint=eastwest;" vertex="1" parent="P7OZJWQYa5IZQyr4ZLPv-113">
          <mxGeometry y="60" width="180" height="30" as="geometry" />
        </mxCell>
        <mxCell id="P7OZJWQYa5IZQyr4ZLPv-118" value="" style="shape=partialRectangle;connectable=0;fillColor=none;top=0;left=0;bottom=0;right=0;editable=1;overflow=hidden;" vertex="1" parent="P7OZJWQYa5IZQyr4ZLPv-117">
          <mxGeometry width="30" height="30" as="geometry" />
        </mxCell>
        <mxCell id="P7OZJWQYa5IZQyr4ZLPv-119" value="StatusDescription" style="shape=partialRectangle;connectable=0;fillColor=none;top=0;left=0;bottom=0;right=0;align=left;spacingLeft=6;overflow=hidden;" vertex="1" parent="P7OZJWQYa5IZQyr4ZLPv-117">
          <mxGeometry x="30" width="150" height="30" as="geometry" />
        </mxCell>
        <mxCell id="P7OZJWQYa5IZQyr4ZLPv-120" value="" style="shape=partialRectangle;collapsible=0;dropTarget=0;pointerEvents=0;fillColor=none;top=0;left=0;bottom=0;right=0;points=[[0,0.5],[1,0.5]];portConstraint=eastwest;" vertex="1" parent="P7OZJWQYa5IZQyr4ZLPv-113">
          <mxGeometry y="90" width="180" height="30" as="geometry" />
        </mxCell>
        <mxCell id="P7OZJWQYa5IZQyr4ZLPv-121" value="" style="shape=partialRectangle;connectable=0;fillColor=none;top=0;left=0;bottom=0;right=0;editable=1;overflow=hidden;" vertex="1" parent="P7OZJWQYa5IZQyr4ZLPv-120">
          <mxGeometry width="30" height="30" as="geometry" />
        </mxCell>
        <mxCell id="P7OZJWQYa5IZQyr4ZLPv-122" value="StatusColor" style="shape=partialRectangle;connectable=0;fillColor=none;top=0;left=0;bottom=0;right=0;align=left;spacingLeft=6;overflow=hidden;" vertex="1" parent="P7OZJWQYa5IZQyr4ZLPv-120">
          <mxGeometry x="30" width="150" height="30" as="geometry" />
        </mxCell>
        <mxCell id="P7OZJWQYa5IZQyr4ZLPv-126" value="" style="shape=partialRectangle;collapsible=0;dropTarget=0;pointerEvents=0;fillColor=none;top=0;left=0;bottom=0;right=0;points=[[0,0.5],[1,0.5]];portConstraint=eastwest;" vertex="1" parent="P7OZJWQYa5IZQyr4ZLPv-113">
          <mxGeometry y="120" width="180" height="30" as="geometry" />
        </mxCell>
        <mxCell id="P7OZJWQYa5IZQyr4ZLPv-127" value="" style="shape=partialRectangle;connectable=0;fillColor=none;top=0;left=0;bottom=0;right=0;editable=1;overflow=hidden;" vertex="1" parent="P7OZJWQYa5IZQyr4ZLPv-126">
          <mxGeometry width="30" height="30" as="geometry" />
        </mxCell>
        <mxCell id="P7OZJWQYa5IZQyr4ZLPv-128" value="StatusSummaryCard" style="shape=partialRectangle;connectable=0;fillColor=none;top=0;left=0;bottom=0;right=0;align=left;spacingLeft=6;overflow=hidden;" vertex="1" parent="P7OZJWQYa5IZQyr4ZLPv-126">
          <mxGeometry x="30" width="150" height="30" as="geometry" />
        </mxCell>
        <mxCell id="P7OZJWQYa5IZQyr4ZLPv-129" value="Users" style="shape=table;startSize=30;container=1;collapsible=1;childLayout=tableLayout;fixedRows=1;rowLines=0;fontStyle=1;align=center;resizeLast=1;" vertex="1" parent="1">
          <mxGeometry x="1205" y="640" width="180" height="160" as="geometry" />
        </mxCell>
        <mxCell id="P7OZJWQYa5IZQyr4ZLPv-130" value="" style="shape=partialRectangle;collapsible=0;dropTarget=0;pointerEvents=0;fillColor=none;top=0;left=0;bottom=1;right=0;points=[[0,0.5],[1,0.5]];portConstraint=eastwest;" vertex="1" parent="P7OZJWQYa5IZQyr4ZLPv-129">
          <mxGeometry y="30" width="180" height="30" as="geometry" />
        </mxCell>
        <mxCell id="P7OZJWQYa5IZQyr4ZLPv-131" value="PK" style="shape=partialRectangle;connectable=0;fillColor=none;top=0;left=0;bottom=0;right=0;fontStyle=1;overflow=hidden;" vertex="1" parent="P7OZJWQYa5IZQyr4ZLPv-130">
          <mxGeometry width="30" height="30" as="geometry" />
        </mxCell>
        <mxCell id="P7OZJWQYa5IZQyr4ZLPv-132" value="UserId" style="shape=partialRectangle;connectable=0;fillColor=none;top=0;left=0;bottom=0;right=0;align=left;spacingLeft=6;fontStyle=5;overflow=hidden;" vertex="1" parent="P7OZJWQYa5IZQyr4ZLPv-130">
          <mxGeometry x="30" width="150" height="30" as="geometry" />
        </mxCell>
        <mxCell id="P7OZJWQYa5IZQyr4ZLPv-133" value="" style="shape=partialRectangle;collapsible=0;dropTarget=0;pointerEvents=0;fillColor=none;top=0;left=0;bottom=0;right=0;points=[[0,0.5],[1,0.5]];portConstraint=eastwest;" vertex="1" parent="P7OZJWQYa5IZQyr4ZLPv-129">
          <mxGeometry y="60" width="180" height="30" as="geometry" />
        </mxCell>
        <mxCell id="P7OZJWQYa5IZQyr4ZLPv-134" value="" style="shape=partialRectangle;connectable=0;fillColor=none;top=0;left=0;bottom=0;right=0;editable=1;overflow=hidden;" vertex="1" parent="P7OZJWQYa5IZQyr4ZLPv-133">
          <mxGeometry width="30" height="30" as="geometry" />
        </mxCell>
        <mxCell id="P7OZJWQYa5IZQyr4ZLPv-135" value="UserFirstName" style="shape=partialRectangle;connectable=0;fillColor=none;top=0;left=0;bottom=0;right=0;align=left;spacingLeft=6;overflow=hidden;" vertex="1" parent="P7OZJWQYa5IZQyr4ZLPv-133">
          <mxGeometry x="30" width="150" height="30" as="geometry" />
        </mxCell>
        <mxCell id="P7OZJWQYa5IZQyr4ZLPv-136" value="" style="shape=partialRectangle;collapsible=0;dropTarget=0;pointerEvents=0;fillColor=none;top=0;left=0;bottom=0;right=0;points=[[0,0.5],[1,0.5]];portConstraint=eastwest;" vertex="1" parent="P7OZJWQYa5IZQyr4ZLPv-129">
          <mxGeometry y="90" width="180" height="30" as="geometry" />
        </mxCell>
        <mxCell id="P7OZJWQYa5IZQyr4ZLPv-137" value="" style="shape=partialRectangle;connectable=0;fillColor=none;top=0;left=0;bottom=0;right=0;editable=1;overflow=hidden;" vertex="1" parent="P7OZJWQYa5IZQyr4ZLPv-136">
          <mxGeometry width="30" height="30" as="geometry" />
        </mxCell>
        <mxCell id="P7OZJWQYa5IZQyr4ZLPv-138" value="UserLastName" style="shape=partialRectangle;connectable=0;fillColor=none;top=0;left=0;bottom=0;right=0;align=left;spacingLeft=6;overflow=hidden;" vertex="1" parent="P7OZJWQYa5IZQyr4ZLPv-136">
          <mxGeometry x="30" width="150" height="30" as="geometry" />
        </mxCell>
        <mxCell id="P7OZJWQYa5IZQyr4ZLPv-139" value="" style="shape=partialRectangle;collapsible=0;dropTarget=0;pointerEvents=0;fillColor=none;top=0;left=0;bottom=0;right=0;points=[[0,0.5],[1,0.5]];portConstraint=eastwest;" vertex="1" parent="P7OZJWQYa5IZQyr4ZLPv-129">
          <mxGeometry y="120" width="180" height="30" as="geometry" />
        </mxCell>
        <mxCell id="P7OZJWQYa5IZQyr4ZLPv-140" value="FK" style="shape=partialRectangle;connectable=0;fillColor=none;top=0;left=0;bottom=0;right=0;editable=1;overflow=hidden;" vertex="1" parent="P7OZJWQYa5IZQyr4ZLPv-139">
          <mxGeometry width="30" height="30" as="geometry" />
        </mxCell>
        <mxCell id="P7OZJWQYa5IZQyr4ZLPv-141" value="UserRole" style="shape=partialRectangle;connectable=0;fillColor=none;top=0;left=0;bottom=0;right=0;align=left;spacingLeft=6;overflow=hidden;" vertex="1" parent="P7OZJWQYa5IZQyr4ZLPv-139">
          <mxGeometry x="30" width="150" height="30" as="geometry" />
        </mxCell>
        <mxCell id="P7OZJWQYa5IZQyr4ZLPv-173" value="PriorAuths" style="shape=table;startSize=30;container=1;collapsible=1;childLayout=tableLayout;fixedRows=1;rowLines=0;fontStyle=1;align=center;resizeLast=1;" vertex="1" parent="1">
          <mxGeometry x="665" y="168" width="180" height="710" as="geometry" />
        </mxCell>
        <mxCell id="P7OZJWQYa5IZQyr4ZLPv-174" value="" style="shape=partialRectangle;collapsible=0;dropTarget=0;pointerEvents=0;fillColor=none;top=0;left=0;bottom=1;right=0;points=[[0,0.5],[1,0.5]];portConstraint=eastwest;" vertex="1" parent="P7OZJWQYa5IZQyr4ZLPv-173">
          <mxGeometry y="30" width="180" height="30" as="geometry" />
        </mxCell>
        <mxCell id="P7OZJWQYa5IZQyr4ZLPv-175" value="PK" style="shape=partialRectangle;connectable=0;fillColor=none;top=0;left=0;bottom=0;right=0;fontStyle=1;overflow=hidden;" vertex="1" parent="P7OZJWQYa5IZQyr4ZLPv-174">
          <mxGeometry width="30" height="30" as="geometry" />
        </mxCell>
        <mxCell id="P7OZJWQYa5IZQyr4ZLPv-176" value="PARecordId" style="shape=partialRectangle;connectable=0;fillColor=none;top=0;left=0;bottom=0;right=0;align=left;spacingLeft=6;fontStyle=5;overflow=hidden;" vertex="1" parent="P7OZJWQYa5IZQyr4ZLPv-174">
          <mxGeometry x="30" width="150" height="30" as="geometry" />
        </mxCell>
        <mxCell id="P7OZJWQYa5IZQyr4ZLPv-177" value="" style="shape=partialRectangle;collapsible=0;dropTarget=0;pointerEvents=0;fillColor=none;top=0;left=0;bottom=0;right=0;points=[[0,0.5],[1,0.5]];portConstraint=eastwest;" vertex="1" parent="P7OZJWQYa5IZQyr4ZLPv-173">
          <mxGeometry y="60" width="180" height="30" as="geometry" />
        </mxCell>
        <mxCell id="P7OZJWQYa5IZQyr4ZLPv-178" value="FK" style="shape=partialRectangle;connectable=0;fillColor=none;top=0;left=0;bottom=0;right=0;editable=1;overflow=hidden;" vertex="1" parent="P7OZJWQYa5IZQyr4ZLPv-177">
          <mxGeometry width="30" height="30" as="geometry" />
        </mxCell>
        <mxCell id="P7OZJWQYa5IZQyr4ZLPv-179" value="PatientId" style="shape=partialRectangle;connectable=0;fillColor=none;top=0;left=0;bottom=0;right=0;align=left;spacingLeft=6;overflow=hidden;" vertex="1" parent="P7OZJWQYa5IZQyr4ZLPv-177">
          <mxGeometry x="30" width="150" height="30" as="geometry" />
        </mxCell>
        <mxCell id="P7OZJWQYa5IZQyr4ZLPv-180" value="" style="shape=partialRectangle;collapsible=0;dropTarget=0;pointerEvents=0;fillColor=none;top=0;left=0;bottom=0;right=0;points=[[0,0.5],[1,0.5]];portConstraint=eastwest;" vertex="1" parent="P7OZJWQYa5IZQyr4ZLPv-173">
          <mxGeometry y="90" width="180" height="30" as="geometry" />
        </mxCell>
        <mxCell id="P7OZJWQYa5IZQyr4ZLPv-181" value="FK" style="shape=partialRectangle;connectable=0;fillColor=none;top=0;left=0;bottom=0;right=0;editable=1;overflow=hidden;" vertex="1" parent="P7OZJWQYa5IZQyr4ZLPv-180">
          <mxGeometry width="30" height="30" as="geometry" />
        </mxCell>
        <mxCell id="P7OZJWQYa5IZQyr4ZLPv-182" value="CarrierId" style="shape=partialRectangle;connectable=0;fillColor=none;top=0;left=0;bottom=0;right=0;align=left;spacingLeft=6;overflow=hidden;" vertex="1" parent="P7OZJWQYa5IZQyr4ZLPv-180">
          <mxGeometry x="30" width="150" height="30" as="geometry" />
        </mxCell>
        <mxCell id="P7OZJWQYa5IZQyr4ZLPv-183" value="" style="shape=partialRectangle;collapsible=0;dropTarget=0;pointerEvents=0;fillColor=none;top=0;left=0;bottom=0;right=0;points=[[0,0.5],[1,0.5]];portConstraint=eastwest;" vertex="1" parent="P7OZJWQYa5IZQyr4ZLPv-173">
          <mxGeometry y="120" width="180" height="65" as="geometry" />
        </mxCell>
        <mxCell id="P7OZJWQYa5IZQyr4ZLPv-184" value="" style="shape=partialRectangle;connectable=0;fillColor=none;top=0;left=0;bottom=0;right=0;editable=1;overflow=hidden;" vertex="1" parent="P7OZJWQYa5IZQyr4ZLPv-183">
          <mxGeometry width="30" height="65" as="geometry" />
        </mxCell>
        <mxCell id="P7OZJWQYa5IZQyr4ZLPv-185" value="PACarrierOrder &#xa;     &#39;P&#39; = Primary&#xa;     &#39;S&#39; = Secondary&#xa;     &#39;T&#39; = Tertiary" style="shape=partialRectangle;connectable=0;fillColor=none;top=0;left=0;bottom=0;right=0;align=left;spacingLeft=6;overflow=hidden;" vertex="1" parent="P7OZJWQYa5IZQyr4ZLPv-183">
          <mxGeometry x="30" width="150" height="65" as="geometry" />
        </mxCell>
        <mxCell id="P7OZJWQYa5IZQyr4ZLPv-211" value="" style="shape=partialRectangle;collapsible=0;dropTarget=0;pointerEvents=0;fillColor=none;top=0;left=0;bottom=0;right=0;points=[[0,0.5],[1,0.5]];portConstraint=eastwest;" vertex="1" parent="P7OZJWQYa5IZQyr4ZLPv-173">
          <mxGeometry y="185" width="180" height="30" as="geometry" />
        </mxCell>
        <mxCell id="P7OZJWQYa5IZQyr4ZLPv-212" value="FK" style="shape=partialRectangle;connectable=0;fillColor=none;top=0;left=0;bottom=0;right=0;editable=1;overflow=hidden;" vertex="1" parent="P7OZJWQYa5IZQyr4ZLPv-211">
          <mxGeometry width="30" height="30" as="geometry" />
        </mxCell>
        <mxCell id="P7OZJWQYa5IZQyr4ZLPv-213" value="PAStatus" style="shape=partialRectangle;connectable=0;fillColor=none;top=0;left=0;bottom=0;right=0;align=left;spacingLeft=6;overflow=hidden;" vertex="1" parent="P7OZJWQYa5IZQyr4ZLPv-211">
          <mxGeometry x="30" width="150" height="30" as="geometry" />
        </mxCell>
        <mxCell id="P7OZJWQYa5IZQyr4ZLPv-214" value="" style="shape=partialRectangle;collapsible=0;dropTarget=0;pointerEvents=0;fillColor=none;top=0;left=0;bottom=0;right=0;points=[[0,0.5],[1,0.5]];portConstraint=eastwest;" vertex="1" parent="P7OZJWQYa5IZQyr4ZLPv-173">
          <mxGeometry y="215" width="180" height="30" as="geometry" />
        </mxCell>
        <mxCell id="P7OZJWQYa5IZQyr4ZLPv-215" value="FK" style="shape=partialRectangle;connectable=0;fillColor=none;top=0;left=0;bottom=0;right=0;editable=1;overflow=hidden;" vertex="1" parent="P7OZJWQYa5IZQyr4ZLPv-214">
          <mxGeometry width="30" height="30" as="geometry" />
        </mxCell>
        <mxCell id="P7OZJWQYa5IZQyr4ZLPv-216" value="PATreatment" style="shape=partialRectangle;connectable=0;fillColor=none;top=0;left=0;bottom=0;right=0;align=left;spacingLeft=6;overflow=hidden;" vertex="1" parent="P7OZJWQYa5IZQyr4ZLPv-214">
          <mxGeometry x="30" width="150" height="30" as="geometry" />
        </mxCell>
        <mxCell id="P7OZJWQYa5IZQyr4ZLPv-217" value="" style="shape=partialRectangle;collapsible=0;dropTarget=0;pointerEvents=0;fillColor=none;top=0;left=0;bottom=0;right=0;points=[[0,0.5],[1,0.5]];portConstraint=eastwest;" vertex="1" parent="P7OZJWQYa5IZQyr4ZLPv-173">
          <mxGeometry y="245" width="180" height="30" as="geometry" />
        </mxCell>
        <mxCell id="P7OZJWQYa5IZQyr4ZLPv-218" value="FK" style="shape=partialRectangle;connectable=0;fillColor=none;top=0;left=0;bottom=0;right=0;editable=1;overflow=hidden;" vertex="1" parent="P7OZJWQYa5IZQyr4ZLPv-217">
          <mxGeometry width="30" height="30" as="geometry" />
        </mxCell>
        <mxCell id="P7OZJWQYa5IZQyr4ZLPv-219" value="PAPlaceOfService" style="shape=partialRectangle;connectable=0;fillColor=none;top=0;left=0;bottom=0;right=0;align=left;spacingLeft=6;overflow=hidden;" vertex="1" parent="P7OZJWQYa5IZQyr4ZLPv-217">
          <mxGeometry x="30" width="150" height="30" as="geometry" />
        </mxCell>
        <mxCell id="P7OZJWQYa5IZQyr4ZLPv-285" value="" style="shape=partialRectangle;collapsible=0;dropTarget=0;pointerEvents=0;fillColor=none;top=0;left=0;bottom=0;right=0;points=[[0,0.5],[1,0.5]];portConstraint=eastwest;" vertex="1" parent="P7OZJWQYa5IZQyr4ZLPv-173">
          <mxGeometry y="275" width="180" height="30" as="geometry" />
        </mxCell>
        <mxCell id="P7OZJWQYa5IZQyr4ZLPv-286" value="FK" style="shape=partialRectangle;connectable=0;fillColor=none;top=0;left=0;bottom=0;right=0;editable=1;overflow=hidden;" vertex="1" parent="P7OZJWQYa5IZQyr4ZLPv-285">
          <mxGeometry width="30" height="30" as="geometry" />
        </mxCell>
        <mxCell id="P7OZJWQYa5IZQyr4ZLPv-287" value="PAAssignedStaff" style="shape=partialRectangle;connectable=0;fillColor=none;top=0;left=0;bottom=0;right=0;align=left;spacingLeft=6;overflow=hidden;" vertex="1" parent="P7OZJWQYa5IZQyr4ZLPv-285">
          <mxGeometry x="30" width="150" height="30" as="geometry" />
        </mxCell>
        <mxCell id="P7OZJWQYa5IZQyr4ZLPv-220" value="" style="shape=partialRectangle;collapsible=0;dropTarget=0;pointerEvents=0;fillColor=none;top=0;left=0;bottom=0;right=0;points=[[0,0.5],[1,0.5]];portConstraint=eastwest;" vertex="1" parent="P7OZJWQYa5IZQyr4ZLPv-173">
          <mxGeometry y="305" width="180" height="30" as="geometry" />
        </mxCell>
        <mxCell id="P7OZJWQYa5IZQyr4ZLPv-221" value="FK" style="shape=partialRectangle;connectable=0;fillColor=none;top=0;left=0;bottom=0;right=0;editable=1;overflow=hidden;" vertex="1" parent="P7OZJWQYa5IZQyr4ZLPv-220">
          <mxGeometry width="30" height="30" as="geometry" />
        </mxCell>
        <mxCell id="P7OZJWQYa5IZQyr4ZLPv-222" value="PATherapistId" style="shape=partialRectangle;connectable=0;fillColor=none;top=0;left=0;bottom=0;right=0;align=left;spacingLeft=6;overflow=hidden;" vertex="1" parent="P7OZJWQYa5IZQyr4ZLPv-220">
          <mxGeometry x="30" width="150" height="30" as="geometry" />
        </mxCell>
        <mxCell id="P7OZJWQYa5IZQyr4ZLPv-223" value="" style="shape=partialRectangle;collapsible=0;dropTarget=0;pointerEvents=0;fillColor=none;top=0;left=0;bottom=0;right=0;points=[[0,0.5],[1,0.5]];portConstraint=eastwest;" vertex="1" parent="P7OZJWQYa5IZQyr4ZLPv-173">
          <mxGeometry y="335" width="180" height="30" as="geometry" />
        </mxCell>
        <mxCell id="P7OZJWQYa5IZQyr4ZLPv-224" value="FK" style="shape=partialRectangle;connectable=0;fillColor=none;top=0;left=0;bottom=0;right=0;editable=1;overflow=hidden;" vertex="1" parent="P7OZJWQYa5IZQyr4ZLPv-223">
          <mxGeometry width="30" height="30" as="geometry" />
        </mxCell>
        <mxCell id="P7OZJWQYa5IZQyr4ZLPv-225" value="PAClinicId" style="shape=partialRectangle;connectable=0;fillColor=none;top=0;left=0;bottom=0;right=0;align=left;spacingLeft=6;overflow=hidden;" vertex="1" parent="P7OZJWQYa5IZQyr4ZLPv-223">
          <mxGeometry x="30" width="150" height="30" as="geometry" />
        </mxCell>
        <mxCell id="P7OZJWQYa5IZQyr4ZLPv-226" value="" style="shape=partialRectangle;collapsible=0;dropTarget=0;pointerEvents=0;fillColor=none;top=0;left=0;bottom=0;right=0;points=[[0,0.5],[1,0.5]];portConstraint=eastwest;" vertex="1" parent="P7OZJWQYa5IZQyr4ZLPv-173">
          <mxGeometry y="365" width="180" height="30" as="geometry" />
        </mxCell>
        <mxCell id="P7OZJWQYa5IZQyr4ZLPv-227" value="" style="shape=partialRectangle;connectable=0;fillColor=none;top=0;left=0;bottom=0;right=0;editable=1;overflow=hidden;" vertex="1" parent="P7OZJWQYa5IZQyr4ZLPv-226">
          <mxGeometry width="30" height="30" as="geometry" />
        </mxCell>
        <mxCell id="P7OZJWQYa5IZQyr4ZLPv-228" value="PARequestDate" style="shape=partialRectangle;connectable=0;fillColor=none;top=0;left=0;bottom=0;right=0;align=left;spacingLeft=6;overflow=hidden;" vertex="1" parent="P7OZJWQYa5IZQyr4ZLPv-226">
          <mxGeometry x="30" width="150" height="30" as="geometry" />
        </mxCell>
        <mxCell id="P7OZJWQYa5IZQyr4ZLPv-229" value="" style="shape=partialRectangle;collapsible=0;dropTarget=0;pointerEvents=0;fillColor=none;top=0;left=0;bottom=0;right=0;points=[[0,0.5],[1,0.5]];portConstraint=eastwest;" vertex="1" parent="P7OZJWQYa5IZQyr4ZLPv-173">
          <mxGeometry y="395" width="180" height="30" as="geometry" />
        </mxCell>
        <mxCell id="P7OZJWQYa5IZQyr4ZLPv-230" value="" style="shape=partialRectangle;connectable=0;fillColor=none;top=0;left=0;bottom=0;right=0;editable=1;overflow=hidden;" vertex="1" parent="P7OZJWQYa5IZQyr4ZLPv-229">
          <mxGeometry width="30" height="30" as="geometry" />
        </mxCell>
        <mxCell id="P7OZJWQYa5IZQyr4ZLPv-231" value="PALastPOCDate" style="shape=partialRectangle;connectable=0;fillColor=none;top=0;left=0;bottom=0;right=0;align=left;spacingLeft=6;overflow=hidden;" vertex="1" parent="P7OZJWQYa5IZQyr4ZLPv-229">
          <mxGeometry x="30" width="150" height="30" as="geometry" />
        </mxCell>
        <mxCell id="P7OZJWQYa5IZQyr4ZLPv-232" value="" style="shape=partialRectangle;collapsible=0;dropTarget=0;pointerEvents=0;fillColor=none;top=0;left=0;bottom=0;right=0;points=[[0,0.5],[1,0.5]];portConstraint=eastwest;" vertex="1" parent="P7OZJWQYa5IZQyr4ZLPv-173">
          <mxGeometry y="425" width="180" height="30" as="geometry" />
        </mxCell>
        <mxCell id="P7OZJWQYa5IZQyr4ZLPv-233" value="" style="shape=partialRectangle;connectable=0;fillColor=none;top=0;left=0;bottom=0;right=0;editable=1;overflow=hidden;" vertex="1" parent="P7OZJWQYa5IZQyr4ZLPv-232">
          <mxGeometry width="30" height="30" as="geometry" />
        </mxCell>
        <mxCell id="P7OZJWQYa5IZQyr4ZLPv-234" value="PALastEvalDate" style="shape=partialRectangle;connectable=0;fillColor=none;top=0;left=0;bottom=0;right=0;align=left;spacingLeft=6;overflow=hidden;" vertex="1" parent="P7OZJWQYa5IZQyr4ZLPv-232">
          <mxGeometry x="30" width="150" height="30" as="geometry" />
        </mxCell>
        <mxCell id="P7OZJWQYa5IZQyr4ZLPv-235" value="" style="shape=partialRectangle;collapsible=0;dropTarget=0;pointerEvents=0;fillColor=none;top=0;left=0;bottom=0;right=0;points=[[0,0.5],[1,0.5]];portConstraint=eastwest;" vertex="1" parent="P7OZJWQYa5IZQyr4ZLPv-173">
          <mxGeometry y="455" width="180" height="30" as="geometry" />
        </mxCell>
        <mxCell id="P7OZJWQYa5IZQyr4ZLPv-236" value="" style="shape=partialRectangle;connectable=0;fillColor=none;top=0;left=0;bottom=0;right=0;editable=1;overflow=hidden;" vertex="1" parent="P7OZJWQYa5IZQyr4ZLPv-235">
          <mxGeometry width="30" height="30" as="geometry" />
        </mxCell>
        <mxCell id="P7OZJWQYa5IZQyr4ZLPv-237" value="PAABADate [NULL]" style="shape=partialRectangle;connectable=0;fillColor=none;top=0;left=0;bottom=0;right=0;align=left;spacingLeft=6;overflow=hidden;" vertex="1" parent="P7OZJWQYa5IZQyr4ZLPv-235">
          <mxGeometry x="30" width="150" height="30" as="geometry" />
        </mxCell>
        <mxCell id="P7OZJWQYa5IZQyr4ZLPv-238" value="" style="shape=partialRectangle;collapsible=0;dropTarget=0;pointerEvents=0;fillColor=none;top=0;left=0;bottom=0;right=0;points=[[0,0.5],[1,0.5]];portConstraint=eastwest;" vertex="1" parent="P7OZJWQYa5IZQyr4ZLPv-173">
          <mxGeometry y="485" width="180" height="30" as="geometry" />
        </mxCell>
        <mxCell id="P7OZJWQYa5IZQyr4ZLPv-239" value="" style="shape=partialRectangle;connectable=0;fillColor=none;top=0;left=0;bottom=0;right=0;editable=1;overflow=hidden;" vertex="1" parent="P7OZJWQYa5IZQyr4ZLPv-238">
          <mxGeometry width="30" height="30" as="geometry" />
        </mxCell>
        <mxCell id="P7OZJWQYa5IZQyr4ZLPv-240" value="PAIEPDate [NULL]" style="shape=partialRectangle;connectable=0;fillColor=none;top=0;left=0;bottom=0;right=0;align=left;spacingLeft=6;overflow=hidden;" vertex="1" parent="P7OZJWQYa5IZQyr4ZLPv-238">
          <mxGeometry x="30" width="150" height="30" as="geometry" />
        </mxCell>
        <mxCell id="P7OZJWQYa5IZQyr4ZLPv-241" value="" style="shape=partialRectangle;collapsible=0;dropTarget=0;pointerEvents=0;fillColor=none;top=0;left=0;bottom=0;right=0;points=[[0,0.5],[1,0.5]];portConstraint=eastwest;" vertex="1" parent="P7OZJWQYa5IZQyr4ZLPv-173">
          <mxGeometry y="515" width="180" height="30" as="geometry" />
        </mxCell>
        <mxCell id="P7OZJWQYa5IZQyr4ZLPv-242" value="" style="shape=partialRectangle;connectable=0;fillColor=none;top=0;left=0;bottom=0;right=0;editable=1;overflow=hidden;" vertex="1" parent="P7OZJWQYa5IZQyr4ZLPv-241">
          <mxGeometry width="30" height="30" as="geometry" />
        </mxCell>
        <mxCell id="P7OZJWQYa5IZQyr4ZLPv-243" value="PAVisitFrequency" style="shape=partialRectangle;connectable=0;fillColor=none;top=0;left=0;bottom=0;right=0;align=left;spacingLeft=6;overflow=hidden;" vertex="1" parent="P7OZJWQYa5IZQyr4ZLPv-241">
          <mxGeometry x="30" width="150" height="30" as="geometry" />
        </mxCell>
        <mxCell id="P7OZJWQYa5IZQyr4ZLPv-244" value="" style="shape=partialRectangle;collapsible=0;dropTarget=0;pointerEvents=0;fillColor=none;top=0;left=0;bottom=0;right=0;points=[[0,0.5],[1,0.5]];portConstraint=eastwest;" vertex="1" parent="P7OZJWQYa5IZQyr4ZLPv-173">
          <mxGeometry y="545" width="180" height="30" as="geometry" />
        </mxCell>
        <mxCell id="P7OZJWQYa5IZQyr4ZLPv-245" value="" style="shape=partialRectangle;connectable=0;fillColor=none;top=0;left=0;bottom=0;right=0;editable=1;overflow=hidden;" vertex="1" parent="P7OZJWQYa5IZQyr4ZLPv-244">
          <mxGeometry width="30" height="30" as="geometry" />
        </mxCell>
        <mxCell id="P7OZJWQYa5IZQyr4ZLPv-246" value="PARqsdNbrVisits" style="shape=partialRectangle;connectable=0;fillColor=none;top=0;left=0;bottom=0;right=0;align=left;spacingLeft=6;overflow=hidden;" vertex="1" parent="P7OZJWQYa5IZQyr4ZLPv-244">
          <mxGeometry x="30" width="150" height="30" as="geometry" />
        </mxCell>
        <mxCell id="P7OZJWQYa5IZQyr4ZLPv-253" value="" style="shape=partialRectangle;collapsible=0;dropTarget=0;pointerEvents=0;fillColor=none;top=0;left=0;bottom=0;right=0;points=[[0,0.5],[1,0.5]];portConstraint=eastwest;" vertex="1" parent="P7OZJWQYa5IZQyr4ZLPv-173">
          <mxGeometry y="575" width="180" height="30" as="geometry" />
        </mxCell>
        <mxCell id="P7OZJWQYa5IZQyr4ZLPv-254" value="" style="shape=partialRectangle;connectable=0;fillColor=none;top=0;left=0;bottom=0;right=0;editable=1;overflow=hidden;" vertex="1" parent="P7OZJWQYa5IZQyr4ZLPv-253">
          <mxGeometry width="30" height="30" as="geometry" />
        </mxCell>
        <mxCell id="P7OZJWQYa5IZQyr4ZLPv-255" value="PAAuthNbrVisits" style="shape=partialRectangle;connectable=0;fillColor=none;top=0;left=0;bottom=0;right=0;align=left;spacingLeft=6;overflow=hidden;" vertex="1" parent="P7OZJWQYa5IZQyr4ZLPv-253">
          <mxGeometry x="30" width="150" height="30" as="geometry" />
        </mxCell>
        <mxCell id="P7OZJWQYa5IZQyr4ZLPv-247" value="" style="shape=partialRectangle;collapsible=0;dropTarget=0;pointerEvents=0;fillColor=none;top=0;left=0;bottom=0;right=0;points=[[0,0.5],[1,0.5]];portConstraint=eastwest;" vertex="1" parent="P7OZJWQYa5IZQyr4ZLPv-173">
          <mxGeometry y="605" width="180" height="30" as="geometry" />
        </mxCell>
        <mxCell id="P7OZJWQYa5IZQyr4ZLPv-248" value="" style="shape=partialRectangle;connectable=0;fillColor=none;top=0;left=0;bottom=0;right=0;editable=1;overflow=hidden;" vertex="1" parent="P7OZJWQYa5IZQyr4ZLPv-247">
          <mxGeometry width="30" height="30" as="geometry" />
        </mxCell>
        <mxCell id="P7OZJWQYa5IZQyr4ZLPv-249" value="PAStartDate" style="shape=partialRectangle;connectable=0;fillColor=none;top=0;left=0;bottom=0;right=0;align=left;spacingLeft=6;overflow=hidden;" vertex="1" parent="P7OZJWQYa5IZQyr4ZLPv-247">
          <mxGeometry x="30" width="150" height="30" as="geometry" />
        </mxCell>
        <mxCell id="P7OZJWQYa5IZQyr4ZLPv-250" value="" style="shape=partialRectangle;collapsible=0;dropTarget=0;pointerEvents=0;fillColor=none;top=0;left=0;bottom=0;right=0;points=[[0,0.5],[1,0.5]];portConstraint=eastwest;" vertex="1" parent="P7OZJWQYa5IZQyr4ZLPv-173">
          <mxGeometry y="635" width="180" height="30" as="geometry" />
        </mxCell>
        <mxCell id="P7OZJWQYa5IZQyr4ZLPv-251" value="" style="shape=partialRectangle;connectable=0;fillColor=none;top=0;left=0;bottom=0;right=0;editable=1;overflow=hidden;" vertex="1" parent="P7OZJWQYa5IZQyr4ZLPv-250">
          <mxGeometry width="30" height="30" as="geometry" />
        </mxCell>
        <mxCell id="P7OZJWQYa5IZQyr4ZLPv-252" value="PAExpireDate" style="shape=partialRectangle;connectable=0;fillColor=none;top=0;left=0;bottom=0;right=0;align=left;spacingLeft=6;overflow=hidden;" vertex="1" parent="P7OZJWQYa5IZQyr4ZLPv-250">
          <mxGeometry x="30" width="150" height="30" as="geometry" />
        </mxCell>
        <mxCell id="P7OZJWQYa5IZQyr4ZLPv-282" value="" style="shape=partialRectangle;collapsible=0;dropTarget=0;pointerEvents=0;fillColor=none;top=0;left=0;bottom=0;right=0;points=[[0,0.5],[1,0.5]];portConstraint=eastwest;" vertex="1" parent="P7OZJWQYa5IZQyr4ZLPv-173">
          <mxGeometry y="665" width="180" height="30" as="geometry" />
        </mxCell>
        <mxCell id="P7OZJWQYa5IZQyr4ZLPv-283" value="" style="shape=partialRectangle;connectable=0;fillColor=none;top=0;left=0;bottom=0;right=0;editable=1;overflow=hidden;" vertex="1" parent="P7OZJWQYa5IZQyr4ZLPv-282">
          <mxGeometry width="30" height="30" as="geometry" />
        </mxCell>
        <mxCell id="P7OZJWQYa5IZQyr4ZLPv-284" value="PAAuthNumber" style="shape=partialRectangle;connectable=0;fillColor=none;top=0;left=0;bottom=0;right=0;align=left;spacingLeft=6;overflow=hidden;" vertex="1" parent="P7OZJWQYa5IZQyr4ZLPv-282">
          <mxGeometry x="30" width="150" height="30" as="geometry" />
        </mxCell>
        <mxCell id="P7OZJWQYa5IZQyr4ZLPv-186" value="Clinics" style="shape=table;startSize=30;container=1;collapsible=1;childLayout=tableLayout;fixedRows=1;rowLines=0;fontStyle=1;align=center;resizeLast=1;fillColor=#fff2cc;strokeColor=#d6b656;" vertex="1" parent="1">
          <mxGeometry x="365" y="718" width="180" height="160" as="geometry" />
        </mxCell>
        <mxCell id="P7OZJWQYa5IZQyr4ZLPv-187" value="" style="shape=partialRectangle;collapsible=0;dropTarget=0;pointerEvents=0;fillColor=none;top=0;left=0;bottom=1;right=0;points=[[0,0.5],[1,0.5]];portConstraint=eastwest;" vertex="1" parent="P7OZJWQYa5IZQyr4ZLPv-186">
          <mxGeometry y="30" width="180" height="30" as="geometry" />
        </mxCell>
        <mxCell id="P7OZJWQYa5IZQyr4ZLPv-188" value="PK" style="shape=partialRectangle;connectable=0;fillColor=none;top=0;left=0;bottom=0;right=0;fontStyle=1;overflow=hidden;" vertex="1" parent="P7OZJWQYa5IZQyr4ZLPv-187">
          <mxGeometry width="30" height="30" as="geometry" />
        </mxCell>
        <mxCell id="P7OZJWQYa5IZQyr4ZLPv-189" value="ClinicId" style="shape=partialRectangle;connectable=0;fillColor=none;top=0;left=0;bottom=0;right=0;align=left;spacingLeft=6;fontStyle=5;overflow=hidden;" vertex="1" parent="P7OZJWQYa5IZQyr4ZLPv-187">
          <mxGeometry x="30" width="150" height="30" as="geometry" />
        </mxCell>
        <mxCell id="P7OZJWQYa5IZQyr4ZLPv-190" value="" style="shape=partialRectangle;collapsible=0;dropTarget=0;pointerEvents=0;fillColor=none;top=0;left=0;bottom=0;right=0;points=[[0,0.5],[1,0.5]];portConstraint=eastwest;" vertex="1" parent="P7OZJWQYa5IZQyr4ZLPv-186">
          <mxGeometry y="60" width="180" height="30" as="geometry" />
        </mxCell>
        <mxCell id="P7OZJWQYa5IZQyr4ZLPv-191" value="" style="shape=partialRectangle;connectable=0;fillColor=none;top=0;left=0;bottom=0;right=0;editable=1;overflow=hidden;" vertex="1" parent="P7OZJWQYa5IZQyr4ZLPv-190">
          <mxGeometry width="30" height="30" as="geometry" />
        </mxCell>
        <mxCell id="P7OZJWQYa5IZQyr4ZLPv-192" value="ClinicName" style="shape=partialRectangle;connectable=0;fillColor=none;top=0;left=0;bottom=0;right=0;align=left;spacingLeft=6;overflow=hidden;" vertex="1" parent="P7OZJWQYa5IZQyr4ZLPv-190">
          <mxGeometry x="30" width="150" height="30" as="geometry" />
        </mxCell>
        <mxCell id="P7OZJWQYa5IZQyr4ZLPv-193" value="" style="shape=partialRectangle;collapsible=0;dropTarget=0;pointerEvents=0;fillColor=none;top=0;left=0;bottom=0;right=0;points=[[0,0.5],[1,0.5]];portConstraint=eastwest;" vertex="1" parent="P7OZJWQYa5IZQyr4ZLPv-186">
          <mxGeometry y="90" width="180" height="30" as="geometry" />
        </mxCell>
        <mxCell id="P7OZJWQYa5IZQyr4ZLPv-194" value="" style="shape=partialRectangle;connectable=0;fillColor=none;top=0;left=0;bottom=0;right=0;editable=1;overflow=hidden;" vertex="1" parent="P7OZJWQYa5IZQyr4ZLPv-193">
          <mxGeometry width="30" height="30" as="geometry" />
        </mxCell>
        <mxCell id="P7OZJWQYa5IZQyr4ZLPv-195" value="ClinicNPI" style="shape=partialRectangle;connectable=0;fillColor=none;top=0;left=0;bottom=0;right=0;align=left;spacingLeft=6;overflow=hidden;" vertex="1" parent="P7OZJWQYa5IZQyr4ZLPv-193">
          <mxGeometry x="30" width="150" height="30" as="geometry" />
        </mxCell>
        <mxCell id="P7OZJWQYa5IZQyr4ZLPv-196" value="" style="shape=partialRectangle;collapsible=0;dropTarget=0;pointerEvents=0;fillColor=none;top=0;left=0;bottom=0;right=0;points=[[0,0.5],[1,0.5]];portConstraint=eastwest;" vertex="1" parent="P7OZJWQYa5IZQyr4ZLPv-186">
          <mxGeometry y="120" width="180" height="30" as="geometry" />
        </mxCell>
        <mxCell id="P7OZJWQYa5IZQyr4ZLPv-197" value="" style="shape=partialRectangle;connectable=0;fillColor=none;top=0;left=0;bottom=0;right=0;editable=1;overflow=hidden;" vertex="1" parent="P7OZJWQYa5IZQyr4ZLPv-196">
          <mxGeometry width="30" height="30" as="geometry" />
        </mxCell>
        <mxCell id="P7OZJWQYa5IZQyr4ZLPv-198" value="ClinicAGroup" style="shape=partialRectangle;connectable=0;fillColor=none;top=0;left=0;bottom=0;right=0;align=left;spacingLeft=6;overflow=hidden;" vertex="1" parent="P7OZJWQYa5IZQyr4ZLPv-196">
          <mxGeometry x="30" width="150" height="30" as="geometry" />
        </mxCell>
        <mxCell id="P7OZJWQYa5IZQyr4ZLPv-256" value="PACPTCodes" style="shape=table;startSize=30;container=1;collapsible=1;childLayout=tableLayout;fixedRows=1;rowLines=0;fontStyle=1;align=center;resizeLast=1;" vertex="1" parent="1">
          <mxGeometry x="365" y="238" width="180" height="100" as="geometry" />
        </mxCell>
        <mxCell id="P7OZJWQYa5IZQyr4ZLPv-257" value="" style="shape=partialRectangle;collapsible=0;dropTarget=0;pointerEvents=0;fillColor=none;top=0;left=0;bottom=0;right=0;points=[[0,0.5],[1,0.5]];portConstraint=eastwest;" vertex="1" parent="P7OZJWQYa5IZQyr4ZLPv-256">
          <mxGeometry y="30" width="180" height="30" as="geometry" />
        </mxCell>
        <mxCell id="P7OZJWQYa5IZQyr4ZLPv-258" value="PK,FK1" style="shape=partialRectangle;connectable=0;fillColor=none;top=0;left=0;bottom=0;right=0;fontStyle=1;overflow=hidden;" vertex="1" parent="P7OZJWQYa5IZQyr4ZLPv-257">
          <mxGeometry width="60" height="30" as="geometry" />
        </mxCell>
        <mxCell id="P7OZJWQYa5IZQyr4ZLPv-259" value="PARecordID" style="shape=partialRectangle;connectable=0;fillColor=none;top=0;left=0;bottom=0;right=0;align=left;spacingLeft=6;fontStyle=5;overflow=hidden;" vertex="1" parent="P7OZJWQYa5IZQyr4ZLPv-257">
          <mxGeometry x="60" width="120" height="30" as="geometry" />
        </mxCell>
        <mxCell id="P7OZJWQYa5IZQyr4ZLPv-260" value="" style="shape=partialRectangle;collapsible=0;dropTarget=0;pointerEvents=0;fillColor=none;top=0;left=0;bottom=1;right=0;points=[[0,0.5],[1,0.5]];portConstraint=eastwest;" vertex="1" parent="P7OZJWQYa5IZQyr4ZLPv-256">
          <mxGeometry y="60" width="180" height="30" as="geometry" />
        </mxCell>
        <mxCell id="P7OZJWQYa5IZQyr4ZLPv-261" value="PK,FK2" style="shape=partialRectangle;connectable=0;fillColor=none;top=0;left=0;bottom=0;right=0;fontStyle=1;overflow=hidden;" vertex="1" parent="P7OZJWQYa5IZQyr4ZLPv-260">
          <mxGeometry width="60" height="30" as="geometry" />
        </mxCell>
        <mxCell id="P7OZJWQYa5IZQyr4ZLPv-262" value="PACPTCode" style="shape=partialRectangle;connectable=0;fillColor=none;top=0;left=0;bottom=0;right=0;align=left;spacingLeft=6;fontStyle=5;overflow=hidden;" vertex="1" parent="P7OZJWQYa5IZQyr4ZLPv-260">
          <mxGeometry x="60" width="120" height="30" as="geometry" />
        </mxCell>
        <mxCell id="P7OZJWQYa5IZQyr4ZLPv-269" value="PADIagCodes" style="shape=table;startSize=30;container=1;collapsible=1;childLayout=tableLayout;fixedRows=1;rowLines=0;fontStyle=1;align=center;resizeLast=1;" vertex="1" parent="1">
          <mxGeometry x="365" y="83" width="180" height="100" as="geometry" />
        </mxCell>
        <mxCell id="P7OZJWQYa5IZQyr4ZLPv-270" value="" style="shape=partialRectangle;collapsible=0;dropTarget=0;pointerEvents=0;fillColor=none;top=0;left=0;bottom=0;right=0;points=[[0,0.5],[1,0.5]];portConstraint=eastwest;" vertex="1" parent="P7OZJWQYa5IZQyr4ZLPv-269">
          <mxGeometry y="30" width="180" height="30" as="geometry" />
        </mxCell>
        <mxCell id="P7OZJWQYa5IZQyr4ZLPv-271" value="PK,FK1" style="shape=partialRectangle;connectable=0;fillColor=none;top=0;left=0;bottom=0;right=0;fontStyle=1;overflow=hidden;" vertex="1" parent="P7OZJWQYa5IZQyr4ZLPv-270">
          <mxGeometry width="60" height="30" as="geometry" />
        </mxCell>
        <mxCell id="P7OZJWQYa5IZQyr4ZLPv-272" value="PARecordID" style="shape=partialRectangle;connectable=0;fillColor=none;top=0;left=0;bottom=0;right=0;align=left;spacingLeft=6;fontStyle=5;overflow=hidden;" vertex="1" parent="P7OZJWQYa5IZQyr4ZLPv-270">
          <mxGeometry x="60" width="120" height="30" as="geometry" />
        </mxCell>
        <mxCell id="P7OZJWQYa5IZQyr4ZLPv-273" value="" style="shape=partialRectangle;collapsible=0;dropTarget=0;pointerEvents=0;fillColor=none;top=0;left=0;bottom=1;right=0;points=[[0,0.5],[1,0.5]];portConstraint=eastwest;" vertex="1" parent="P7OZJWQYa5IZQyr4ZLPv-269">
          <mxGeometry y="60" width="180" height="30" as="geometry" />
        </mxCell>
        <mxCell id="P7OZJWQYa5IZQyr4ZLPv-274" value="PK,FK2" style="shape=partialRectangle;connectable=0;fillColor=none;top=0;left=0;bottom=0;right=0;fontStyle=1;overflow=hidden;" vertex="1" parent="P7OZJWQYa5IZQyr4ZLPv-273">
          <mxGeometry width="60" height="30" as="geometry" />
        </mxCell>
        <mxCell id="P7OZJWQYa5IZQyr4ZLPv-275" value="PADiagCode" style="shape=partialRectangle;connectable=0;fillColor=none;top=0;left=0;bottom=0;right=0;align=left;spacingLeft=6;fontStyle=5;overflow=hidden;" vertex="1" parent="P7OZJWQYa5IZQyr4ZLPv-273">
          <mxGeometry x="60" width="120" height="30" as="geometry" />
        </mxCell>
        <mxCell id="P7OZJWQYa5IZQyr4ZLPv-289" value="" style="group" vertex="1" connectable="0" parent="1">
          <mxGeometry x="1205" y="388" width="180" height="185" as="geometry" />
        </mxCell>
        <mxCell id="P7OZJWQYa5IZQyr4ZLPv-146" value="Roles" style="shape=table;startSize=30;container=1;collapsible=1;childLayout=tableLayout;fixedRows=1;rowLines=0;fontStyle=1;align=center;resizeLast=1;" vertex="1" parent="P7OZJWQYa5IZQyr4ZLPv-289">
          <mxGeometry width="180" height="185" as="geometry" />
        </mxCell>
        <mxCell id="P7OZJWQYa5IZQyr4ZLPv-147" value="" style="shape=partialRectangle;collapsible=0;dropTarget=0;pointerEvents=0;fillColor=none;top=0;left=0;bottom=1;right=0;points=[[0,0.5],[1,0.5]];portConstraint=eastwest;" vertex="1" parent="P7OZJWQYa5IZQyr4ZLPv-146">
          <mxGeometry y="30" width="180" height="30" as="geometry" />
        </mxCell>
        <mxCell id="P7OZJWQYa5IZQyr4ZLPv-148" value="PK" style="shape=partialRectangle;connectable=0;fillColor=none;top=0;left=0;bottom=0;right=0;fontStyle=1;overflow=hidden;" vertex="1" parent="P7OZJWQYa5IZQyr4ZLPv-147">
          <mxGeometry width="30" height="30" as="geometry" />
        </mxCell>
        <mxCell id="P7OZJWQYa5IZQyr4ZLPv-149" value="RoleId" style="shape=partialRectangle;connectable=0;fillColor=none;top=0;left=0;bottom=0;right=0;align=left;spacingLeft=6;fontStyle=5;overflow=hidden;" vertex="1" parent="P7OZJWQYa5IZQyr4ZLPv-147">
          <mxGeometry x="30" width="150" height="30" as="geometry" />
        </mxCell>
        <mxCell id="P7OZJWQYa5IZQyr4ZLPv-150" value="" style="shape=partialRectangle;collapsible=0;dropTarget=0;pointerEvents=0;fillColor=none;top=0;left=0;bottom=0;right=0;points=[[0,0.5],[1,0.5]];portConstraint=eastwest;" vertex="1" parent="P7OZJWQYa5IZQyr4ZLPv-146">
          <mxGeometry y="60" width="180" height="30" as="geometry" />
        </mxCell>
        <mxCell id="P7OZJWQYa5IZQyr4ZLPv-151" value="" style="shape=partialRectangle;connectable=0;fillColor=none;top=0;left=0;bottom=0;right=0;editable=1;overflow=hidden;" vertex="1" parent="P7OZJWQYa5IZQyr4ZLPv-150">
          <mxGeometry width="30" height="30" as="geometry" />
        </mxCell>
        <mxCell id="P7OZJWQYa5IZQyr4ZLPv-152" value="RoleName" style="shape=partialRectangle;connectable=0;fillColor=none;top=0;left=0;bottom=0;right=0;align=left;spacingLeft=6;overflow=hidden;" vertex="1" parent="P7OZJWQYa5IZQyr4ZLPv-150">
          <mxGeometry x="30" width="150" height="30" as="geometry" />
        </mxCell>
        <mxCell id="P7OZJWQYa5IZQyr4ZLPv-172" value="&lt;div style=&quot;text-align: left&quot;&gt;&lt;i&gt;Identified roles are:&lt;/i&gt;&lt;/div&gt;&lt;i&gt;&lt;div style=&quot;text-align: left&quot;&gt;&lt;ul&gt;&lt;li&gt;&lt;i&gt;Admin&lt;/i&gt;&lt;/li&gt;&lt;li&gt;&lt;i&gt;Staff&lt;/i&gt;&lt;/li&gt;&lt;li&gt;&lt;i&gt;Therapist&lt;/i&gt;&lt;/li&gt;&lt;/ul&gt;&lt;/div&gt;&lt;/i&gt;" style="text;html=1;align=center;verticalAlign=middle;resizable=0;points=[];autosize=1;strokeColor=none;" vertex="1" parent="P7OZJWQYa5IZQyr4ZLPv-289">
          <mxGeometry x="40" y="90" width="120" height="90" as="geometry" />
        </mxCell>
        <mxCell id="P7OZJWQYa5IZQyr4ZLPv-297" value="" style="edgeStyle=entityRelationEdgeStyle;fontSize=12;html=1;endArrow=ERoneToMany;exitX=0;exitY=0.5;exitDx=0;exitDy=0;entryX=1;entryY=0.5;entryDx=0;entryDy=0;" edge="1" parent="1" source="P7OZJWQYa5IZQyr4ZLPv-88" target="P7OZJWQYa5IZQyr4ZLPv-177">
          <mxGeometry width="100" height="100" relative="1" as="geometry">
            <mxPoint x="475" y="408" as="sourcePoint" />
            <mxPoint x="575" y="308" as="targetPoint" />
          </mxGeometry>
        </mxCell>
        <mxCell id="P7OZJWQYa5IZQyr4ZLPv-299" value="" style="edgeStyle=entityRelationEdgeStyle;fontSize=12;html=1;endArrow=ERoneToMany;entryX=1;entryY=0.5;entryDx=0;entryDy=0;exitX=0;exitY=0.5;exitDx=0;exitDy=0;" edge="1" parent="1" source="P7OZJWQYa5IZQyr4ZLPv-41" target="P7OZJWQYa5IZQyr4ZLPv-180">
          <mxGeometry width="100" height="100" relative="1" as="geometry">
            <mxPoint x="815" y="458" as="sourcePoint" />
            <mxPoint x="915" y="358" as="targetPoint" />
          </mxGeometry>
        </mxCell>
        <mxCell id="P7OZJWQYa5IZQyr4ZLPv-300" value="" style="edgeStyle=entityRelationEdgeStyle;fontSize=12;html=1;endArrow=ERoneToMany;exitX=0;exitY=0.5;exitDx=0;exitDy=0;entryX=1;entryY=0.5;entryDx=0;entryDy=0;" edge="1" parent="1" source="P7OZJWQYa5IZQyr4ZLPv-66" target="P7OZJWQYa5IZQyr4ZLPv-220">
          <mxGeometry width="100" height="100" relative="1" as="geometry">
            <mxPoint x="805" y="818" as="sourcePoint" />
            <mxPoint x="905" y="718" as="targetPoint" />
          </mxGeometry>
        </mxCell>
        <mxCell id="P7OZJWQYa5IZQyr4ZLPv-305" value="" style="edgeStyle=entityRelationEdgeStyle;fontSize=12;html=1;endArrow=ERoneToMany;exitX=0;exitY=0.5;exitDx=0;exitDy=0;entryX=1;entryY=0.5;entryDx=0;entryDy=0;" edge="1" parent="1" source="P7OZJWQYa5IZQyr4ZLPv-174" target="P7OZJWQYa5IZQyr4ZLPv-270">
          <mxGeometry width="100" height="100" relative="1" as="geometry">
            <mxPoint x="555" y="468" as="sourcePoint" />
            <mxPoint x="655" y="368" as="targetPoint" />
          </mxGeometry>
        </mxCell>
        <mxCell id="P7OZJWQYa5IZQyr4ZLPv-306" value="" style="edgeStyle=entityRelationEdgeStyle;fontSize=12;html=1;endArrow=ERoneToMany;exitX=0;exitY=0.5;exitDx=0;exitDy=0;entryX=1;entryY=0.5;entryDx=0;entryDy=0;" edge="1" parent="1" source="P7OZJWQYa5IZQyr4ZLPv-174" target="P7OZJWQYa5IZQyr4ZLPv-257">
          <mxGeometry width="100" height="100" relative="1" as="geometry">
            <mxPoint x="595" y="88" as="sourcePoint" />
            <mxPoint x="325" y="68" as="targetPoint" />
          </mxGeometry>
        </mxCell>
        <mxCell id="P7OZJWQYa5IZQyr4ZLPv-308" value="" style="edgeStyle=entityRelationEdgeStyle;fontSize=12;html=1;endArrow=ERoneToMany;entryX=0;entryY=0.5;entryDx=0;entryDy=0;exitX=1;exitY=0.5;exitDx=0;exitDy=0;" edge="1" parent="1" source="P7OZJWQYa5IZQyr4ZLPv-15" target="P7OZJWQYa5IZQyr4ZLPv-273">
          <mxGeometry width="100" height="100" relative="1" as="geometry">
            <mxPoint x="305" y="238" as="sourcePoint" />
            <mxPoint x="375" y="148" as="targetPoint" />
          </mxGeometry>
        </mxCell>
        <mxCell id="P7OZJWQYa5IZQyr4ZLPv-309" value="" style="edgeStyle=entityRelationEdgeStyle;fontSize=12;html=1;endArrow=ERoneToMany;entryX=0;entryY=0.5;entryDx=0;entryDy=0;exitX=1;exitY=0.5;exitDx=0;exitDy=0;" edge="1" parent="1" source="P7OZJWQYa5IZQyr4ZLPv-2" target="P7OZJWQYa5IZQyr4ZLPv-260">
          <mxGeometry width="100" height="100" relative="1" as="geometry">
            <mxPoint x="165" y="638" as="sourcePoint" />
            <mxPoint x="355" y="458" as="targetPoint" />
          </mxGeometry>
        </mxCell>
        <mxCell id="P7OZJWQYa5IZQyr4ZLPv-311" value="" style="edgeStyle=entityRelationEdgeStyle;fontSize=12;html=1;endArrow=ERoneToMany;exitX=1;exitY=0.5;exitDx=0;exitDy=0;entryX=0;entryY=0.5;entryDx=0;entryDy=0;" edge="1" parent="1" source="P7OZJWQYa5IZQyr4ZLPv-114" target="P7OZJWQYa5IZQyr4ZLPv-211">
          <mxGeometry width="100" height="100" relative="1" as="geometry">
            <mxPoint x="425" y="1048" as="sourcePoint" />
            <mxPoint x="655" y="398" as="targetPoint" />
          </mxGeometry>
        </mxCell>
        <mxCell id="P7OZJWQYa5IZQyr4ZLPv-312" value="" style="edgeStyle=entityRelationEdgeStyle;fontSize=12;html=1;endArrow=ERoneToMany;entryX=0;entryY=0.5;entryDx=0;entryDy=0;exitX=1;exitY=0.5;exitDx=0;exitDy=0;" edge="1" parent="1" source="P7OZJWQYa5IZQyr4ZLPv-28" target="P7OZJWQYa5IZQyr4ZLPv-214">
          <mxGeometry width="100" height="100" relative="1" as="geometry">
            <mxPoint x="505" y="1028" as="sourcePoint" />
            <mxPoint x="605" y="928" as="targetPoint" />
          </mxGeometry>
        </mxCell>
        <mxCell id="P7OZJWQYa5IZQyr4ZLPv-313" value="" style="edgeStyle=entityRelationEdgeStyle;fontSize=12;html=1;endArrow=ERoneToMany;entryX=0;entryY=0.5;entryDx=0;entryDy=0;exitX=1;exitY=0.5;exitDx=0;exitDy=0;" edge="1" parent="1" source="P7OZJWQYa5IZQyr4ZLPv-101" target="P7OZJWQYa5IZQyr4ZLPv-217">
          <mxGeometry width="100" height="100" relative="1" as="geometry">
            <mxPoint x="535" y="958" as="sourcePoint" />
            <mxPoint x="635" y="858" as="targetPoint" />
          </mxGeometry>
        </mxCell>
        <mxCell id="P7OZJWQYa5IZQyr4ZLPv-314" value="" style="edgeStyle=entityRelationEdgeStyle;fontSize=12;html=1;endArrow=ERoneToMany;exitX=1;exitY=0.5;exitDx=0;exitDy=0;entryX=0;entryY=0.5;entryDx=0;entryDy=0;" edge="1" parent="1" source="P7OZJWQYa5IZQyr4ZLPv-187" target="P7OZJWQYa5IZQyr4ZLPv-223">
          <mxGeometry width="100" height="100" relative="1" as="geometry">
            <mxPoint x="755" y="578" as="sourcePoint" />
            <mxPoint x="855" y="478" as="targetPoint" />
          </mxGeometry>
        </mxCell>
        <mxCell id="P7OZJWQYa5IZQyr4ZLPv-320" value="" style="edgeStyle=entityRelationEdgeStyle;fontSize=12;html=1;endArrow=ERoneToMany;exitX=0;exitY=0.5;exitDx=0;exitDy=0;" edge="1" parent="1" source="P7OZJWQYa5IZQyr4ZLPv-130" target="P7OZJWQYa5IZQyr4ZLPv-285">
          <mxGeometry width="100" height="100" relative="1" as="geometry">
            <mxPoint x="755" y="718" as="sourcePoint" />
            <mxPoint x="855" y="618" as="targetPoint" />
          </mxGeometry>
        </mxCell>
        <mxCell id="P7OZJWQYa5IZQyr4ZLPv-321" value="" style="edgeStyle=entityRelationEdgeStyle;fontSize=12;html=1;endArrow=ERoneToMany;exitX=0;exitY=0.5;exitDx=0;exitDy=0;entryX=1;entryY=0.5;entryDx=0;entryDy=0;" edge="1" parent="1" source="P7OZJWQYa5IZQyr4ZLPv-130" target="P7OZJWQYa5IZQyr4ZLPv-142">
          <mxGeometry width="100" height="100" relative="1" as="geometry">
            <mxPoint x="755" y="718" as="sourcePoint" />
            <mxPoint x="855" y="618" as="targetPoint" />
          </mxGeometry>
        </mxCell>
        <mxCell id="P7OZJWQYa5IZQyr4ZLPv-322" value="Therapist&lt;br&gt;Role Only" style="edgeLabel;html=1;align=center;verticalAlign=middle;resizable=0;points=[];" vertex="1" connectable="0" parent="P7OZJWQYa5IZQyr4ZLPv-321">
          <mxGeometry x="0.118" y="1" relative="1" as="geometry">
            <mxPoint x="-1" as="offset" />
          </mxGeometry>
        </mxCell>
        <mxCell id="P7OZJWQYa5IZQyr4ZLPv-65" value="Therapists" style="shape=table;startSize=30;container=1;collapsible=1;childLayout=tableLayout;fixedRows=1;rowLines=0;fontStyle=1;align=center;resizeLast=1;" vertex="1" parent="1">
          <mxGeometry x="915" y="598" width="180" height="430" as="geometry" />
        </mxCell>
        <mxCell id="P7OZJWQYa5IZQyr4ZLPv-66" value="" style="shape=partialRectangle;collapsible=0;dropTarget=0;pointerEvents=0;fillColor=none;top=0;left=0;bottom=1;right=0;points=[[0,0.5],[1,0.5]];portConstraint=eastwest;" vertex="1" parent="P7OZJWQYa5IZQyr4ZLPv-65">
          <mxGeometry y="30" width="180" height="30" as="geometry" />
        </mxCell>
        <mxCell id="P7OZJWQYa5IZQyr4ZLPv-67" value="PK" style="shape=partialRectangle;connectable=0;fillColor=none;top=0;left=0;bottom=0;right=0;fontStyle=1;overflow=hidden;" vertex="1" parent="P7OZJWQYa5IZQyr4ZLPv-66">
          <mxGeometry width="30" height="30" as="geometry" />
        </mxCell>
        <mxCell id="P7OZJWQYa5IZQyr4ZLPv-68" value="TherapistId" style="shape=partialRectangle;connectable=0;fillColor=none;top=0;left=0;bottom=0;right=0;align=left;spacingLeft=6;fontStyle=5;overflow=hidden;" vertex="1" parent="P7OZJWQYa5IZQyr4ZLPv-66">
          <mxGeometry x="30" width="150" height="30" as="geometry" />
        </mxCell>
        <mxCell id="P7OZJWQYa5IZQyr4ZLPv-69" value="" style="shape=partialRectangle;collapsible=0;dropTarget=0;pointerEvents=0;fillColor=none;top=0;left=0;bottom=0;right=0;points=[[0,0.5],[1,0.5]];portConstraint=eastwest;" vertex="1" parent="P7OZJWQYa5IZQyr4ZLPv-65">
          <mxGeometry y="60" width="180" height="30" as="geometry" />
        </mxCell>
        <mxCell id="P7OZJWQYa5IZQyr4ZLPv-70" value="" style="shape=partialRectangle;connectable=0;fillColor=none;top=0;left=0;bottom=0;right=0;editable=1;overflow=hidden;" vertex="1" parent="P7OZJWQYa5IZQyr4ZLPv-69">
          <mxGeometry width="30" height="30" as="geometry" />
        </mxCell>
        <mxCell id="P7OZJWQYa5IZQyr4ZLPv-71" value="TherapistFirstName" style="shape=partialRectangle;connectable=0;fillColor=none;top=0;left=0;bottom=0;right=0;align=left;spacingLeft=6;overflow=hidden;" vertex="1" parent="P7OZJWQYa5IZQyr4ZLPv-69">
          <mxGeometry x="30" width="150" height="30" as="geometry" />
        </mxCell>
        <mxCell id="P7OZJWQYa5IZQyr4ZLPv-72" value="" style="shape=partialRectangle;collapsible=0;dropTarget=0;pointerEvents=0;fillColor=none;top=0;left=0;bottom=0;right=0;points=[[0,0.5],[1,0.5]];portConstraint=eastwest;" vertex="1" parent="P7OZJWQYa5IZQyr4ZLPv-65">
          <mxGeometry y="90" width="180" height="30" as="geometry" />
        </mxCell>
        <mxCell id="P7OZJWQYa5IZQyr4ZLPv-73" value="" style="shape=partialRectangle;connectable=0;fillColor=none;top=0;left=0;bottom=0;right=0;editable=1;overflow=hidden;" vertex="1" parent="P7OZJWQYa5IZQyr4ZLPv-72">
          <mxGeometry width="30" height="30" as="geometry" />
        </mxCell>
        <mxCell id="P7OZJWQYa5IZQyr4ZLPv-74" value="TherapistLastName" style="shape=partialRectangle;connectable=0;fillColor=none;top=0;left=0;bottom=0;right=0;align=left;spacingLeft=6;overflow=hidden;" vertex="1" parent="P7OZJWQYa5IZQyr4ZLPv-72">
          <mxGeometry x="30" width="150" height="30" as="geometry" />
        </mxCell>
        <mxCell id="P7OZJWQYa5IZQyr4ZLPv-75" value="" style="shape=partialRectangle;collapsible=0;dropTarget=0;pointerEvents=0;fillColor=none;top=0;left=0;bottom=0;right=0;points=[[0,0.5],[1,0.5]];portConstraint=eastwest;" vertex="1" parent="P7OZJWQYa5IZQyr4ZLPv-65">
          <mxGeometry y="120" width="180" height="30" as="geometry" />
        </mxCell>
        <mxCell id="P7OZJWQYa5IZQyr4ZLPv-76" value="" style="shape=partialRectangle;connectable=0;fillColor=none;top=0;left=0;bottom=0;right=0;editable=1;overflow=hidden;" vertex="1" parent="P7OZJWQYa5IZQyr4ZLPv-75">
          <mxGeometry width="30" height="30" as="geometry" />
        </mxCell>
        <mxCell id="P7OZJWQYa5IZQyr4ZLPv-77" value="TherapistEmail" style="shape=partialRectangle;connectable=0;fillColor=none;top=0;left=0;bottom=0;right=0;align=left;spacingLeft=6;overflow=hidden;" vertex="1" parent="P7OZJWQYa5IZQyr4ZLPv-75">
          <mxGeometry x="30" width="150" height="30" as="geometry" />
        </mxCell>
        <mxCell id="P7OZJWQYa5IZQyr4ZLPv-78" value="" style="shape=partialRectangle;collapsible=0;dropTarget=0;pointerEvents=0;fillColor=none;top=0;left=0;bottom=0;right=0;points=[[0,0.5],[1,0.5]];portConstraint=eastwest;" vertex="1" parent="P7OZJWQYa5IZQyr4ZLPv-65">
          <mxGeometry y="150" width="180" height="30" as="geometry" />
        </mxCell>
        <mxCell id="P7OZJWQYa5IZQyr4ZLPv-79" value="" style="shape=partialRectangle;connectable=0;fillColor=none;top=0;left=0;bottom=0;right=0;editable=1;overflow=hidden;" vertex="1" parent="P7OZJWQYa5IZQyr4ZLPv-78">
          <mxGeometry width="30" height="30" as="geometry" />
        </mxCell>
        <mxCell id="P7OZJWQYa5IZQyr4ZLPv-80" value="TherapistRcvEmails" style="shape=partialRectangle;connectable=0;fillColor=none;top=0;left=0;bottom=0;right=0;align=left;spacingLeft=6;overflow=hidden;" vertex="1" parent="P7OZJWQYa5IZQyr4ZLPv-78">
          <mxGeometry x="30" width="150" height="30" as="geometry" />
        </mxCell>
        <mxCell id="P7OZJWQYa5IZQyr4ZLPv-81" value="" style="shape=partialRectangle;collapsible=0;dropTarget=0;pointerEvents=0;fillColor=none;top=0;left=0;bottom=0;right=0;points=[[0,0.5],[1,0.5]];portConstraint=eastwest;" vertex="1" parent="P7OZJWQYa5IZQyr4ZLPv-65">
          <mxGeometry y="180" width="180" height="30" as="geometry" />
        </mxCell>
        <mxCell id="P7OZJWQYa5IZQyr4ZLPv-82" value="" style="shape=partialRectangle;connectable=0;fillColor=none;top=0;left=0;bottom=0;right=0;editable=1;overflow=hidden;" vertex="1" parent="P7OZJWQYa5IZQyr4ZLPv-81">
          <mxGeometry width="30" height="30" as="geometry" />
        </mxCell>
        <mxCell id="P7OZJWQYa5IZQyr4ZLPv-83" value="TherapistRcvNotification" style="shape=partialRectangle;connectable=0;fillColor=none;top=0;left=0;bottom=0;right=0;align=left;spacingLeft=6;overflow=hidden;" vertex="1" parent="P7OZJWQYa5IZQyr4ZLPv-81">
          <mxGeometry x="30" width="150" height="30" as="geometry" />
        </mxCell>
        <mxCell id="P7OZJWQYa5IZQyr4ZLPv-84" value="" style="shape=partialRectangle;collapsible=0;dropTarget=0;pointerEvents=0;fillColor=none;top=0;left=0;bottom=0;right=0;points=[[0,0.5],[1,0.5]];portConstraint=eastwest;" vertex="1" parent="P7OZJWQYa5IZQyr4ZLPv-65">
          <mxGeometry y="210" width="180" height="30" as="geometry" />
        </mxCell>
        <mxCell id="P7OZJWQYa5IZQyr4ZLPv-85" value="" style="shape=partialRectangle;connectable=0;fillColor=none;top=0;left=0;bottom=0;right=0;editable=1;overflow=hidden;" vertex="1" parent="P7OZJWQYa5IZQyr4ZLPv-84">
          <mxGeometry width="30" height="30" as="geometry" />
        </mxCell>
        <mxCell id="P7OZJWQYa5IZQyr4ZLPv-86" value="TherapistNotes" style="shape=partialRectangle;connectable=0;fillColor=none;top=0;left=0;bottom=0;right=0;align=left;spacingLeft=6;overflow=hidden;" vertex="1" parent="P7OZJWQYa5IZQyr4ZLPv-84">
          <mxGeometry x="30" width="150" height="30" as="geometry" />
        </mxCell>
        <mxCell id="P7OZJWQYa5IZQyr4ZLPv-142" value="" style="shape=partialRectangle;collapsible=0;dropTarget=0;pointerEvents=0;fillColor=none;top=0;left=0;bottom=0;right=0;points=[[0,0.5],[1,0.5]];portConstraint=eastwest;" vertex="1" parent="P7OZJWQYa5IZQyr4ZLPv-65">
          <mxGeometry y="240" width="180" height="30" as="geometry" />
        </mxCell>
        <mxCell id="P7OZJWQYa5IZQyr4ZLPv-143" value="FK" style="shape=partialRectangle;connectable=0;fillColor=none;top=0;left=0;bottom=0;right=0;editable=1;overflow=hidden;" vertex="1" parent="P7OZJWQYa5IZQyr4ZLPv-142">
          <mxGeometry width="30" height="30" as="geometry" />
        </mxCell>
        <mxCell id="P7OZJWQYa5IZQyr4ZLPv-144" value="TherapistUserId (Opt)" style="shape=partialRectangle;connectable=0;fillColor=none;top=0;left=0;bottom=0;right=0;align=left;spacingLeft=6;overflow=hidden;" vertex="1" parent="P7OZJWQYa5IZQyr4ZLPv-142">
          <mxGeometry x="30" width="150" height="30" as="geometry" />
        </mxCell>
        <mxCell id="P7OZJWQYa5IZQyr4ZLPv-199" value="" style="shape=partialRectangle;collapsible=0;dropTarget=0;pointerEvents=0;fillColor=none;top=0;left=0;bottom=0;right=0;points=[[0,0.5],[1,0.5]];portConstraint=eastwest;" vertex="1" parent="P7OZJWQYa5IZQyr4ZLPv-65">
          <mxGeometry y="270" width="180" height="30" as="geometry" />
        </mxCell>
        <mxCell id="P7OZJWQYa5IZQyr4ZLPv-200" value="" style="shape=partialRectangle;connectable=0;fillColor=none;top=0;left=0;bottom=0;right=0;editable=1;overflow=hidden;" vertex="1" parent="P7OZJWQYa5IZQyr4ZLPv-199">
          <mxGeometry width="30" height="30" as="geometry" />
        </mxCell>
        <mxCell id="P7OZJWQYa5IZQyr4ZLPv-201" value="TherapistNPI" style="shape=partialRectangle;connectable=0;fillColor=none;top=0;left=0;bottom=0;right=0;align=left;spacingLeft=6;overflow=hidden;" vertex="1" parent="P7OZJWQYa5IZQyr4ZLPv-199">
          <mxGeometry x="30" width="150" height="30" as="geometry" />
        </mxCell>
        <mxCell id="P7OZJWQYa5IZQyr4ZLPv-202" value="" style="shape=partialRectangle;collapsible=0;dropTarget=0;pointerEvents=0;fillColor=none;top=0;left=0;bottom=0;right=0;points=[[0,0.5],[1,0.5]];portConstraint=eastwest;" vertex="1" parent="P7OZJWQYa5IZQyr4ZLPv-65">
          <mxGeometry y="300" width="180" height="30" as="geometry" />
        </mxCell>
        <mxCell id="P7OZJWQYa5IZQyr4ZLPv-203" value="" style="shape=partialRectangle;connectable=0;fillColor=none;top=0;left=0;bottom=0;right=0;editable=1;overflow=hidden;" vertex="1" parent="P7OZJWQYa5IZQyr4ZLPv-202">
          <mxGeometry width="30" height="30" as="geometry" />
        </mxCell>
        <mxCell id="P7OZJWQYa5IZQyr4ZLPv-204" value="TherapistTaxonomy" style="shape=partialRectangle;connectable=0;fillColor=none;top=0;left=0;bottom=0;right=0;align=left;spacingLeft=6;overflow=hidden;" vertex="1" parent="P7OZJWQYa5IZQyr4ZLPv-202">
          <mxGeometry x="30" width="150" height="30" as="geometry" />
        </mxCell>
        <mxCell id="P7OZJWQYa5IZQyr4ZLPv-326" value="" style="shape=partialRectangle;collapsible=0;dropTarget=0;pointerEvents=0;fillColor=none;top=0;left=0;bottom=0;right=0;points=[[0,0.5],[1,0.5]];portConstraint=eastwest;" vertex="1" parent="P7OZJWQYa5IZQyr4ZLPv-65">
          <mxGeometry y="330" width="180" height="30" as="geometry" />
        </mxCell>
        <mxCell id="P7OZJWQYa5IZQyr4ZLPv-327" value="FK" style="shape=partialRectangle;connectable=0;fillColor=none;top=0;left=0;bottom=0;right=0;editable=1;overflow=hidden;" vertex="1" parent="P7OZJWQYa5IZQyr4ZLPv-326">
          <mxGeometry width="30" height="30" as="geometry" />
        </mxCell>
        <mxCell id="P7OZJWQYa5IZQyr4ZLPv-328" value="TherapistAssignedStaff" style="shape=partialRectangle;connectable=0;fillColor=none;top=0;left=0;bottom=0;right=0;align=left;spacingLeft=6;overflow=hidden;" vertex="1" parent="P7OZJWQYa5IZQyr4ZLPv-326">
          <mxGeometry x="30" width="150" height="30" as="geometry" />
        </mxCell>
        <mxCell id="P7OZJWQYa5IZQyr4ZLPv-145" value="&lt;i&gt;Tracked Therapists&lt;br&gt;&amp;nbsp;may not necessarily&lt;br&gt;&amp;nbsp;have a signon&lt;/i&gt;" style="text;html=1;align=center;verticalAlign=middle;resizable=0;points=[];autosize=1;strokeColor=none;" vertex="1" parent="1">
          <mxGeometry x="955" y="968" width="120" height="50" as="geometry" />
        </mxCell>
        <mxCell id="P7OZJWQYa5IZQyr4ZLPv-329" value="" style="edgeStyle=entityRelationEdgeStyle;fontSize=12;html=1;endArrow=ERoneToMany;exitX=0;exitY=0.5;exitDx=0;exitDy=0;entryX=1;entryY=0.5;entryDx=0;entryDy=0;" edge="1" parent="1" source="P7OZJWQYa5IZQyr4ZLPv-130" target="P7OZJWQYa5IZQyr4ZLPv-326">
          <mxGeometry width="100" height="100" relative="1" as="geometry">
            <mxPoint x="755" y="718" as="sourcePoint" />
            <mxPoint x="855" y="618" as="targetPoint" />
          </mxGeometry>
        </mxCell>
        <mxCell id="P7OZJWQYa5IZQyr4ZLPv-330" value="Front Office &lt;br&gt;Role Only" style="edgeLabel;html=1;align=center;verticalAlign=middle;resizable=0;points=[];" vertex="1" connectable="0" parent="P7OZJWQYa5IZQyr4ZLPv-329">
          <mxGeometry x="0.3933" y="1" relative="1" as="geometry">
            <mxPoint y="-1" as="offset" />
          </mxGeometry>
        </mxCell>
        <mxCell id="P7OZJWQYa5IZQyr4ZLPv-332" value="" style="edgeStyle=entityRelationEdgeStyle;fontSize=12;html=1;endArrow=ERmandOne;startArrow=ERmandOne;entryX=1;entryY=0.5;entryDx=0;entryDy=0;exitX=1;exitY=0.5;exitDx=0;exitDy=0;" edge="1" parent="1" source="P7OZJWQYa5IZQyr4ZLPv-139" target="P7OZJWQYa5IZQyr4ZLPv-147">
          <mxGeometry width="100" height="100" relative="1" as="geometry">
            <mxPoint x="1595" y="918" as="sourcePoint" />
            <mxPoint x="1695" y="818" as="targetPoint" />
          </mxGeometry>
        </mxCell>
        <mxCell id="P7OZJWQYa5IZQyr4ZLPv-333" value="Text" style="text;html=1;strokeColor=none;fillColor=none;align=center;verticalAlign=middle;whiteSpace=wrap;rounded=0;" vertex="1" parent="1">
          <mxGeometry x="785" y="368" width="40" height="20" as="geometry" />
        </mxCell>
        <mxCell id="P7OZJWQYa5IZQyr4ZLPv-335" value="&lt;h1&gt;PA Tracker&lt;/h1&gt;&lt;p&gt;Entity - Relationship Diagram&lt;/p&gt;&lt;p&gt;Yellow - New Tables not specified in User Stories&lt;/p&gt;" style="text;html=1;strokeColor=none;fillColor=none;spacing=5;spacingTop=-20;whiteSpace=wrap;overflow=hidden;rounded=0;align=center;" vertex="1" parent="1">
          <mxGeometry x="655" y="33" width="190" height="120" as="geometry" />
        </mxCell>
        <mxCell id="P7OZJWQYa5IZQyr4ZLPv-336" value="ERD Design by Cah Myers&lt;br&gt;&amp;nbsp;for devCodeCamp Capstone&lt;br&gt;and for The Playroom, Inc.&lt;br&gt;May/June 2021" style="text;html=1;strokeColor=none;fillColor=none;align=center;verticalAlign=middle;whiteSpace=wrap;rounded=0;" vertex="1" parent="1">
          <mxGeometry x="80" y="948" width="230" height="80" as="geometry" />
        </mxCell>
        <mxCell id="P7OZJWQYa5IZQyr4ZLPv-350" value="PARecordNotes" style="shape=table;startSize=30;container=1;collapsible=1;childLayout=tableLayout;fixedRows=1;rowLines=0;fontStyle=1;align=center;resizeLast=1;fillColor=#fff2cc;strokeColor=#d6b656;" vertex="1" parent="1">
          <mxGeometry x="1480" y="398" width="180" height="190" as="geometry" />
        </mxCell>
        <mxCell id="P7OZJWQYa5IZQyr4ZLPv-351" value="" style="shape=partialRectangle;collapsible=0;dropTarget=0;pointerEvents=0;fillColor=none;top=0;left=0;bottom=0;right=0;points=[[0,0.5],[1,0.5]];portConstraint=eastwest;" vertex="1" parent="P7OZJWQYa5IZQyr4ZLPv-350">
          <mxGeometry y="30" width="180" height="30" as="geometry" />
        </mxCell>
        <mxCell id="P7OZJWQYa5IZQyr4ZLPv-352" value="PK,FK1" style="shape=partialRectangle;connectable=0;fillColor=none;top=0;left=0;bottom=0;right=0;fontStyle=1;overflow=hidden;" vertex="1" parent="P7OZJWQYa5IZQyr4ZLPv-351">
          <mxGeometry width="60" height="30" as="geometry" />
        </mxCell>
        <mxCell id="P7OZJWQYa5IZQyr4ZLPv-353" value="PARecordID" style="shape=partialRectangle;connectable=0;fillColor=none;top=0;left=0;bottom=0;right=0;align=left;spacingLeft=6;fontStyle=5;overflow=hidden;" vertex="1" parent="P7OZJWQYa5IZQyr4ZLPv-351">
          <mxGeometry x="60" width="120" height="30" as="geometry" />
        </mxCell>
        <mxCell id="P7OZJWQYa5IZQyr4ZLPv-354" value="" style="shape=partialRectangle;collapsible=0;dropTarget=0;pointerEvents=0;fillColor=none;top=0;left=0;bottom=1;right=0;points=[[0,0.5],[1,0.5]];portConstraint=eastwest;" vertex="1" parent="P7OZJWQYa5IZQyr4ZLPv-350">
          <mxGeometry y="60" width="180" height="30" as="geometry" />
        </mxCell>
        <mxCell id="P7OZJWQYa5IZQyr4ZLPv-355" value="PK" style="shape=partialRectangle;connectable=0;fillColor=none;top=0;left=0;bottom=0;right=0;fontStyle=1;overflow=hidden;" vertex="1" parent="P7OZJWQYa5IZQyr4ZLPv-354">
          <mxGeometry width="60" height="30" as="geometry" />
        </mxCell>
        <mxCell id="P7OZJWQYa5IZQyr4ZLPv-356" value="NoteSequence" style="shape=partialRectangle;connectable=0;fillColor=none;top=0;left=0;bottom=0;right=0;align=left;spacingLeft=6;fontStyle=5;overflow=hidden;" vertex="1" parent="P7OZJWQYa5IZQyr4ZLPv-354">
          <mxGeometry x="60" width="120" height="30" as="geometry" />
        </mxCell>
        <mxCell id="P7OZJWQYa5IZQyr4ZLPv-357" value="" style="shape=partialRectangle;collapsible=0;dropTarget=0;pointerEvents=0;fillColor=none;top=0;left=0;bottom=0;right=0;points=[[0,0.5],[1,0.5]];portConstraint=eastwest;" vertex="1" parent="P7OZJWQYa5IZQyr4ZLPv-350">
          <mxGeometry y="90" width="180" height="30" as="geometry" />
        </mxCell>
        <mxCell id="P7OZJWQYa5IZQyr4ZLPv-358" value="" style="shape=partialRectangle;connectable=0;fillColor=none;top=0;left=0;bottom=0;right=0;editable=1;overflow=hidden;" vertex="1" parent="P7OZJWQYa5IZQyr4ZLPv-357">
          <mxGeometry width="60" height="30" as="geometry" />
        </mxCell>
        <mxCell id="P7OZJWQYa5IZQyr4ZLPv-359" value="NoteText" style="shape=partialRectangle;connectable=0;fillColor=none;top=0;left=0;bottom=0;right=0;align=left;spacingLeft=6;overflow=hidden;" vertex="1" parent="P7OZJWQYa5IZQyr4ZLPv-357">
          <mxGeometry x="60" width="120" height="30" as="geometry" />
        </mxCell>
        <mxCell id="P7OZJWQYa5IZQyr4ZLPv-360" value="" style="shape=partialRectangle;collapsible=0;dropTarget=0;pointerEvents=0;fillColor=none;top=0;left=0;bottom=0;right=0;points=[[0,0.5],[1,0.5]];portConstraint=eastwest;" vertex="1" parent="P7OZJWQYa5IZQyr4ZLPv-350">
          <mxGeometry y="120" width="180" height="30" as="geometry" />
        </mxCell>
        <mxCell id="P7OZJWQYa5IZQyr4ZLPv-361" value="FK" style="shape=partialRectangle;connectable=0;fillColor=none;top=0;left=0;bottom=0;right=0;editable=1;overflow=hidden;" vertex="1" parent="P7OZJWQYa5IZQyr4ZLPv-360">
          <mxGeometry width="60" height="30" as="geometry" />
        </mxCell>
        <mxCell id="P7OZJWQYa5IZQyr4ZLPv-362" value="NoteUser" style="shape=partialRectangle;connectable=0;fillColor=none;top=0;left=0;bottom=0;right=0;align=left;spacingLeft=6;overflow=hidden;" vertex="1" parent="P7OZJWQYa5IZQyr4ZLPv-360">
          <mxGeometry x="60" width="120" height="30" as="geometry" />
        </mxCell>
        <mxCell id="P7OZJWQYa5IZQyr4ZLPv-381" value="" style="shape=partialRectangle;collapsible=0;dropTarget=0;pointerEvents=0;fillColor=none;top=0;left=0;bottom=0;right=0;points=[[0,0.5],[1,0.5]];portConstraint=eastwest;" vertex="1" parent="P7OZJWQYa5IZQyr4ZLPv-350">
          <mxGeometry y="150" width="180" height="30" as="geometry" />
        </mxCell>
        <mxCell id="P7OZJWQYa5IZQyr4ZLPv-382" value="FK" style="shape=partialRectangle;connectable=0;fillColor=none;top=0;left=0;bottom=0;right=0;editable=1;overflow=hidden;" vertex="1" parent="P7OZJWQYa5IZQyr4ZLPv-381">
          <mxGeometry width="60" height="30" as="geometry" />
        </mxCell>
        <mxCell id="P7OZJWQYa5IZQyr4ZLPv-383" value="NoteTypeID" style="shape=partialRectangle;connectable=0;fillColor=none;top=0;left=0;bottom=0;right=0;align=left;spacingLeft=6;overflow=hidden;" vertex="1" parent="P7OZJWQYa5IZQyr4ZLPv-381">
          <mxGeometry x="60" width="120" height="30" as="geometry" />
        </mxCell>
        <mxCell id="P7OZJWQYa5IZQyr4ZLPv-367" value="NoteTypes" style="shape=table;startSize=30;container=1;collapsible=1;childLayout=tableLayout;fixedRows=1;rowLines=0;fontStyle=1;align=center;resizeLast=1;fillColor=#fff2cc;strokeColor=#d6b656;" vertex="1" parent="1">
          <mxGeometry x="1230" y="948" width="180" height="100" as="geometry" />
        </mxCell>
        <mxCell id="P7OZJWQYa5IZQyr4ZLPv-368" value="" style="shape=partialRectangle;collapsible=0;dropTarget=0;pointerEvents=0;fillColor=none;top=0;left=0;bottom=1;right=0;points=[[0,0.5],[1,0.5]];portConstraint=eastwest;" vertex="1" parent="P7OZJWQYa5IZQyr4ZLPv-367">
          <mxGeometry y="30" width="180" height="30" as="geometry" />
        </mxCell>
        <mxCell id="P7OZJWQYa5IZQyr4ZLPv-369" value="PK" style="shape=partialRectangle;connectable=0;fillColor=none;top=0;left=0;bottom=0;right=0;fontStyle=1;overflow=hidden;" vertex="1" parent="P7OZJWQYa5IZQyr4ZLPv-368">
          <mxGeometry width="30" height="30" as="geometry" />
        </mxCell>
        <mxCell id="P7OZJWQYa5IZQyr4ZLPv-370" value="NoteTypeId" style="shape=partialRectangle;connectable=0;fillColor=none;top=0;left=0;bottom=0;right=0;align=left;spacingLeft=6;fontStyle=5;overflow=hidden;" vertex="1" parent="P7OZJWQYa5IZQyr4ZLPv-368">
          <mxGeometry x="30" width="150" height="30" as="geometry" />
        </mxCell>
        <mxCell id="P7OZJWQYa5IZQyr4ZLPv-371" value="" style="shape=partialRectangle;collapsible=0;dropTarget=0;pointerEvents=0;fillColor=none;top=0;left=0;bottom=0;right=0;points=[[0,0.5],[1,0.5]];portConstraint=eastwest;" vertex="1" parent="P7OZJWQYa5IZQyr4ZLPv-367">
          <mxGeometry y="60" width="180" height="30" as="geometry" />
        </mxCell>
        <mxCell id="P7OZJWQYa5IZQyr4ZLPv-372" value="" style="shape=partialRectangle;connectable=0;fillColor=none;top=0;left=0;bottom=0;right=0;editable=1;overflow=hidden;" vertex="1" parent="P7OZJWQYa5IZQyr4ZLPv-371">
          <mxGeometry width="30" height="30" as="geometry" />
        </mxCell>
        <mxCell id="P7OZJWQYa5IZQyr4ZLPv-373" value="NoteTypeDescription" style="shape=partialRectangle;connectable=0;fillColor=none;top=0;left=0;bottom=0;right=0;align=left;spacingLeft=6;overflow=hidden;" vertex="1" parent="P7OZJWQYa5IZQyr4ZLPv-371">
          <mxGeometry x="30" width="150" height="30" as="geometry" />
        </mxCell>
        <mxCell id="P7OZJWQYa5IZQyr4ZLPv-384" value="" style="edgeStyle=entityRelationEdgeStyle;fontSize=12;html=1;endArrow=ERmany;exitX=1;exitY=0.5;exitDx=0;exitDy=0;entryX=0;entryY=0.5;entryDx=0;entryDy=0;" edge="1" parent="1" source="P7OZJWQYa5IZQyr4ZLPv-368" target="P7OZJWQYa5IZQyr4ZLPv-381">
          <mxGeometry width="100" height="100" relative="1" as="geometry">
            <mxPoint x="1525" y="588" as="sourcePoint" />
            <mxPoint x="1625" y="488" as="targetPoint" />
          </mxGeometry>
        </mxCell>
        <mxCell id="P7OZJWQYa5IZQyr4ZLPv-386" value="" style="edgeStyle=entityRelationEdgeStyle;fontSize=12;html=1;endArrow=ERoneToMany;exitX=1;exitY=0.5;exitDx=0;exitDy=0;entryX=0;entryY=0.5;entryDx=0;entryDy=0;" edge="1" parent="1" source="P7OZJWQYa5IZQyr4ZLPv-174" target="P7OZJWQYa5IZQyr4ZLPv-351">
          <mxGeometry width="100" height="100" relative="1" as="geometry">
            <mxPoint x="765" y="673" as="sourcePoint" />
            <mxPoint x="865" y="573" as="targetPoint" />
          </mxGeometry>
        </mxCell>
        <mxCell id="P7OZJWQYa5IZQyr4ZLPv-387" value="" style="edgeStyle=entityRelationEdgeStyle;fontSize=12;html=1;endArrow=ERoneToMany;entryX=0;entryY=0.5;entryDx=0;entryDy=0;" edge="1" parent="1" source="P7OZJWQYa5IZQyr4ZLPv-130" target="P7OZJWQYa5IZQyr4ZLPv-360">
          <mxGeometry width="100" height="100" relative="1" as="geometry">
            <mxPoint x="1150" y="665" as="sourcePoint" />
            <mxPoint x="1205" y="973" as="targetPoint" />
          </mxGeometry>
        </mxCell>
      </root>
    </mxGraphModel>
  </diagram>
</mxfile>
